<mxfile host="app.diagrams.net" agent="Mozilla/5.0 (X11; Linux x86_64) AppleWebKit/537.36 (KHTML, like Gecko) Chrome/135.0.0.0 Safari/537.36" version="26.2.14">
  <diagram name="Page-1" id="U7kH-epYJp6n53xCjkGP">
    <mxGraphModel dx="2272" dy="1439" grid="1" gridSize="10" guides="1" tooltips="1" connect="1" arrows="1" fold="1" page="1" pageScale="1" pageWidth="1169" pageHeight="827" math="0" shadow="0">
      <root>
        <mxCell id="0" />
        <mxCell id="1" parent="0" />
        <mxCell id="VuztZd5diSc5d07SC9xR-14" value="" style="rounded=0;whiteSpace=wrap;html=1;" parent="1" vertex="1">
          <mxGeometry x="100" y="-470" width="940" height="1000" as="geometry" />
        </mxCell>
        <UserObject label="`" id="8XwY_JzCTahz7euxyNvv-22">
          <mxCell style="rounded=1;whiteSpace=wrap;html=1;strokeColor=#6c8ebf;fillColor=#dae8fc;opacity=50;" parent="1" vertex="1">
            <mxGeometry x="110" y="-250" width="1280" height="750" as="geometry" />
          </mxCell>
        </UserObject>
        <mxCell id="VuztZd5diSc5d07SC9xR-42" value="Notification Consumer for Process Queue for&amp;nbsp;Specific (action)-(provider)&lt;br&gt;&lt;br&gt;Handles the following:&lt;br&gt;1. Send Pending Notifications&lt;br&gt;2. Confirm Awaiting notifications" style="rounded=0;whiteSpace=wrap;html=1;" parent="1" vertex="1">
          <mxGeometry x="520" y="-60" width="180" height="438.5" as="geometry" />
        </mxCell>
        <mxCell id="8XwY_JzCTahz7euxyNvv-17" value="" style="rounded=1;whiteSpace=wrap;html=1;strokeColor=#b85450;fillColor=#f8cecc;opacity=50;" parent="1" vertex="1">
          <mxGeometry x="-140" y="-450" width="480" height="340" as="geometry" />
        </mxCell>
        <mxCell id="PHZ-Gd2ygnw3X2nU42TV-8" value="User/Application" style="rounded=0;whiteSpace=wrap;html=1;" parent="1" vertex="1">
          <mxGeometry x="-130" y="-400" width="120" height="60" as="geometry" />
        </mxCell>
        <mxCell id="PHZ-Gd2ygnw3X2nU42TV-16" value="" style="rounded=0;whiteSpace=wrap;html=1;" parent="1" vertex="1">
          <mxGeometry x="140" y="-208.27" width="170" height="88" as="geometry" />
        </mxCell>
        <mxCell id="PHZ-Gd2ygnw3X2nU42TV-17" value="Database" style="text;html=1;strokeColor=none;fillColor=none;align=center;verticalAlign=middle;whiteSpace=wrap;rounded=0;" parent="1" vertex="1">
          <mxGeometry x="196" y="-148.53" width="60" height="30" as="geometry" />
        </mxCell>
        <mxCell id="VuztZd5diSc5d07SC9xR-8" value="Recipient(s)" style="shape=umlActor;verticalLabelPosition=bottom;verticalAlign=top;html=1;outlineConnect=0;" parent="1" vertex="1">
          <mxGeometry x="1330" y="-1.0658141036401503e-14" width="30" height="60" as="geometry" />
        </mxCell>
        <mxCell id="VuztZd5diSc5d07SC9xR-16" value="OsmoX" style="text;html=1;strokeColor=none;fillColor=none;align=center;verticalAlign=middle;whiteSpace=wrap;rounded=0;" parent="1" vertex="1">
          <mxGeometry x="500" y="-470" width="120" height="30" as="geometry" />
        </mxCell>
        <mxCell id="VuztZd5diSc5d07SC9xR-43" value="Bull Queue" style="text;html=1;strokeColor=none;fillColor=none;align=center;verticalAlign=middle;whiteSpace=wrap;rounded=0;" parent="1" vertex="1">
          <mxGeometry x="567.5" y="-50.00000000000001" width="85" height="30" as="geometry" />
        </mxCell>
        <mxCell id="8XwY_JzCTahz7euxyNvv-2" value="" style="rounded=0;whiteSpace=wrap;html=1;" parent="1" vertex="1">
          <mxGeometry x="142" y="-420" width="168" height="110" as="geometry" />
        </mxCell>
        <mxCell id="8XwY_JzCTahz7euxyNvv-3" value="API" style="text;html=1;strokeColor=none;fillColor=none;align=center;verticalAlign=middle;whiteSpace=wrap;rounded=0;" parent="1" vertex="1">
          <mxGeometry x="172" y="-348.26" width="108" height="30" as="geometry" />
        </mxCell>
        <mxCell id="8XwY_JzCTahz7euxyNvv-10" style="edgeStyle=orthogonalEdgeStyle;rounded=0;orthogonalLoop=1;jettySize=auto;html=1;" parent="1" source="PHZ-Gd2ygnw3X2nU42TV-8" edge="1">
          <mxGeometry relative="1" as="geometry">
            <Array as="points">
              <mxPoint x="80" y="-380" />
              <mxPoint x="80" y="-380" />
            </Array>
            <mxPoint x="140" y="-380" as="targetPoint" />
          </mxGeometry>
        </mxCell>
        <mxCell id="8XwY_JzCTahz7euxyNvv-11" style="edgeStyle=orthogonalEdgeStyle;rounded=0;orthogonalLoop=1;jettySize=auto;html=1;entryX=1.008;entryY=0.678;entryDx=0;entryDy=0;entryPerimeter=0;" parent="1" source="8XwY_JzCTahz7euxyNvv-2" target="PHZ-Gd2ygnw3X2nU42TV-8" edge="1">
          <mxGeometry relative="1" as="geometry">
            <Array as="points">
              <mxPoint x="101" y="-360" />
            </Array>
          </mxGeometry>
        </mxCell>
        <mxCell id="8XwY_JzCTahz7euxyNvv-18" value="" style="rounded=1;whiteSpace=wrap;html=1;strokeColor=#b85450;fillColor=#f8cecc;opacity=50;" parent="1" vertex="1">
          <mxGeometry x="1060" y="-463" width="40" height="40" as="geometry" />
        </mxCell>
        <mxCell id="8XwY_JzCTahz7euxyNvv-19" value="Notification Ingestion Process" style="text;html=1;strokeColor=none;fillColor=none;align=left;verticalAlign=middle;whiteSpace=wrap;rounded=0;" parent="1" vertex="1">
          <mxGeometry x="1114.67" y="-458" width="112.5" height="30" as="geometry" />
        </mxCell>
        <mxCell id="8XwY_JzCTahz7euxyNvv-20" value="" style="rounded=1;whiteSpace=wrap;html=1;strokeColor=#6c8ebf;fillColor=#dae8fc;opacity=50;" parent="1" vertex="1">
          <mxGeometry x="1060" y="-403" width="40" height="40" as="geometry" />
        </mxCell>
        <mxCell id="8XwY_JzCTahz7euxyNvv-23" value="Notification Data Request" style="text;html=1;strokeColor=none;fillColor=none;align=center;verticalAlign=middle;whiteSpace=wrap;rounded=0;" parent="1" vertex="1">
          <mxGeometry x="-10" y="-410" width="120" height="30" as="geometry" />
        </mxCell>
        <mxCell id="8XwY_JzCTahz7euxyNvv-24" value="Confirmation Response" style="text;html=1;strokeColor=none;fillColor=none;align=center;verticalAlign=middle;whiteSpace=wrap;rounded=0;" parent="1" vertex="1">
          <mxGeometry y="-355" width="100" height="30" as="geometry" />
        </mxCell>
        <mxCell id="8XwY_JzCTahz7euxyNvv-25" value="Notification Data" style="text;html=1;strokeColor=none;fillColor=none;align=center;verticalAlign=middle;whiteSpace=wrap;rounded=0;" parent="1" vertex="1">
          <mxGeometry x="122" y="-280" width="60" height="30" as="geometry" />
        </mxCell>
        <mxCell id="8XwY_JzCTahz7euxyNvv-26" value="Response Data" style="text;html=1;strokeColor=none;fillColor=none;align=center;verticalAlign=middle;whiteSpace=wrap;rounded=0;" parent="1" vertex="1">
          <mxGeometry x="270" y="-290" width="60" height="30" as="geometry" />
        </mxCell>
        <mxCell id="8XwY_JzCTahz7euxyNvv-27" value="Request Pending Notifications &amp;amp; Awaiting confirmation notifications" style="text;html=1;strokeColor=none;fillColor=none;align=center;verticalAlign=middle;whiteSpace=wrap;rounded=0;" parent="1" vertex="1">
          <mxGeometry x="276" y="-80" width="130" height="30" as="geometry" />
        </mxCell>
        <mxCell id="8XwY_JzCTahz7euxyNvv-28" value="Provider Response Data" style="text;html=1;strokeColor=none;fillColor=none;align=center;verticalAlign=middle;whiteSpace=wrap;rounded=0;" parent="1" vertex="1">
          <mxGeometry x="108" y="-80" width="88" height="30" as="geometry" />
        </mxCell>
        <mxCell id="6r-pFXoc1YKWH5FSKKsW-3" value="Notification Delivery Process" style="text;html=1;strokeColor=none;fillColor=none;align=left;verticalAlign=middle;whiteSpace=wrap;rounded=0;" parent="1" vertex="1">
          <mxGeometry x="1114.67" y="-398" width="100" height="30" as="geometry" />
        </mxCell>
        <mxCell id="L9cUNZ-uKrun5VPk3kAT-3" value="&lt;div&gt;&lt;br&gt;&lt;/div&gt;" style="rounded=1;whiteSpace=wrap;html=1;strokeColor=#82b366;fillColor=#d5e8d4;opacity=50;" parent="1" vertex="1">
          <mxGeometry x="-140" y="-20" width="480" height="150" as="geometry" />
        </mxCell>
        <mxCell id="L9cUNZ-uKrun5VPk3kAT-14" style="edgeStyle=orthogonalEdgeStyle;rounded=1;orthogonalLoop=1;jettySize=auto;html=1;exitX=0.75;exitY=0;exitDx=0;exitDy=0;entryX=0.75;entryY=1;entryDx=0;entryDy=0;" parent="1" edge="1">
          <mxGeometry relative="1" as="geometry">
            <mxPoint x="200.00000000000045" y="-10" as="sourcePoint" />
            <mxPoint x="201" y="-120.26999999999998" as="targetPoint" />
          </mxGeometry>
        </mxCell>
        <mxCell id="PHZ-Gd2ygnw3X2nU42TV-1" value="Scheduler Endpoint" style="rounded=0;whiteSpace=wrap;html=1;" parent="1" vertex="1">
          <mxGeometry x="142" y="-10" width="166" height="120" as="geometry" />
        </mxCell>
        <mxCell id="L9cUNZ-uKrun5VPk3kAT-10" style="edgeStyle=orthogonalEdgeStyle;rounded=1;orthogonalLoop=1;jettySize=auto;html=1;entryX=0;entryY=0.5;entryDx=0;entryDy=0;exitX=1;exitY=0.5;exitDx=0;exitDy=0;" parent="1" source="L9cUNZ-uKrun5VPk3kAT-11" target="PHZ-Gd2ygnw3X2nU42TV-1" edge="1">
          <mxGeometry relative="1" as="geometry">
            <mxPoint x="-20" y="31" as="sourcePoint" />
            <mxPoint x="309" y="-385" as="targetPoint" />
          </mxGeometry>
        </mxCell>
        <mxCell id="L9cUNZ-uKrun5VPk3kAT-11" value="Scheduler Script to trigger Pending Notifications &amp;amp; Awaiting confirmation Notifications" style="rounded=0;whiteSpace=wrap;html=1;" parent="1" vertex="1">
          <mxGeometry x="-120" y="10" width="150" height="80" as="geometry" />
        </mxCell>
        <mxCell id="L9cUNZ-uKrun5VPk3kAT-16" value="" style="endArrow=classic;html=1;rounded=1;entryX=0.65;entryY=1.008;entryDx=0;entryDy=0;entryPerimeter=0;" parent="1" edge="1">
          <mxGeometry width="50" height="50" relative="1" as="geometry">
            <mxPoint x="196" y="-209.94" as="sourcePoint" />
            <mxPoint x="196.19999999999982" y="-309.9999999999999" as="targetPoint" />
          </mxGeometry>
        </mxCell>
        <mxCell id="L9cUNZ-uKrun5VPk3kAT-17" value="" style="endArrow=classic;html=1;rounded=1;exitX=0.321;exitY=1.002;exitDx=0;exitDy=0;entryX=0.334;entryY=0.003;entryDx=0;entryDy=0;exitPerimeter=0;entryPerimeter=0;" parent="1" edge="1">
          <mxGeometry width="50" height="50" relative="1" as="geometry">
            <mxPoint x="255.99799999999988" y="-310" as="sourcePoint" />
            <mxPoint x="256.8500000000002" y="-208.22600000000008" as="targetPoint" />
          </mxGeometry>
        </mxCell>
        <mxCell id="L9cUNZ-uKrun5VPk3kAT-18" value="Queue Service to generate custom queues:&lt;br&gt;(action)-(providerType)-(providerId)" style="rounded=0;whiteSpace=wrap;html=1;" parent="1" vertex="1">
          <mxGeometry x="137.5" y="234" width="175" height="180" as="geometry" />
        </mxCell>
        <mxCell id="L9cUNZ-uKrun5VPk3kAT-19" style="edgeStyle=orthogonalEdgeStyle;rounded=1;orthogonalLoop=1;jettySize=auto;html=1;exitX=0.5;exitY=1;exitDx=0;exitDy=0;" parent="1" source="VuztZd5diSc5d07SC9xR-14" target="VuztZd5diSc5d07SC9xR-14" edge="1">
          <mxGeometry relative="1" as="geometry" />
        </mxCell>
        <mxCell id="L9cUNZ-uKrun5VPk3kAT-20" value="" style="endArrow=classic;html=1;rounded=1;exitX=0.5;exitY=1;exitDx=0;exitDy=0;entryX=0.5;entryY=0;entryDx=0;entryDy=0;" parent="1" edge="1">
          <mxGeometry width="50" height="50" relative="1" as="geometry">
            <mxPoint x="250" y="110" as="sourcePoint" />
            <mxPoint x="250" y="234" as="targetPoint" />
          </mxGeometry>
        </mxCell>
        <mxCell id="L9cUNZ-uKrun5VPk3kAT-22" value="Produce Queue based on Data and operation" style="text;html=1;strokeColor=none;fillColor=none;align=center;verticalAlign=middle;whiteSpace=wrap;rounded=0;" parent="1" vertex="1">
          <mxGeometry x="257" y="160" width="128" height="30" as="geometry" />
        </mxCell>
        <mxCell id="L9cUNZ-uKrun5VPk3kAT-24" value="Mailgun Provider Service" style="rounded=0;whiteSpace=wrap;html=1;" parent="1" vertex="1">
          <mxGeometry x="840" width="120" height="60" as="geometry" />
        </mxCell>
        <mxCell id="L9cUNZ-uKrun5VPk3kAT-25" value="" style="rounded=0;whiteSpace=wrap;html=1;" parent="1" vertex="1">
          <mxGeometry x="1095.29" y="-20" width="120" height="100" as="geometry" />
        </mxCell>
        <mxCell id="L9cUNZ-uKrun5VPk3kAT-26" value="Mailgun Provider" style="text;html=1;strokeColor=none;fillColor=none;align=center;verticalAlign=middle;whiteSpace=wrap;rounded=0;" parent="1" vertex="1">
          <mxGeometry x="1103.19" y="40" width="109.33" height="20" as="geometry" />
        </mxCell>
        <mxCell id="L9cUNZ-uKrun5VPk3kAT-30" value="Twilio Provider Service" style="rounded=0;whiteSpace=wrap;html=1;" parent="1" vertex="1">
          <mxGeometry x="840" y="130" width="120" height="60" as="geometry" />
        </mxCell>
        <mxCell id="L9cUNZ-uKrun5VPk3kAT-31" value="Other Provider Services" style="rounded=0;whiteSpace=wrap;html=1;" parent="1" vertex="1">
          <mxGeometry x="840" y="250" width="120" height="60" as="geometry" />
        </mxCell>
        <mxCell id="L9cUNZ-uKrun5VPk3kAT-32" value="" style="endArrow=classic;html=1;rounded=1;exitX=1;exitY=0.5;exitDx=0;exitDy=0;entryX=0;entryY=0.5;entryDx=0;entryDy=0;" parent="1" source="L9cUNZ-uKrun5VPk3kAT-18" target="VuztZd5diSc5d07SC9xR-42" edge="1">
          <mxGeometry width="50" height="50" relative="1" as="geometry">
            <mxPoint x="530" y="260" as="sourcePoint" />
            <mxPoint x="580" y="210" as="targetPoint" />
            <Array as="points">
              <mxPoint x="420" y="324" />
              <mxPoint x="420" y="159" />
            </Array>
          </mxGeometry>
        </mxCell>
        <mxCell id="L9cUNZ-uKrun5VPk3kAT-34" value="" style="endArrow=classic;html=1;rounded=1;entryX=-0.002;entryY=0.338;entryDx=0;entryDy=0;exitX=1;exitY=0.25;exitDx=0;exitDy=0;entryPerimeter=0;" parent="1" source="L9cUNZ-uKrun5VPk3kAT-24" target="L9cUNZ-uKrun5VPk3kAT-25" edge="1">
          <mxGeometry width="50" height="50" relative="1" as="geometry">
            <mxPoint x="960" y="10" as="sourcePoint" />
            <mxPoint x="1095.29" y="10" as="targetPoint" />
          </mxGeometry>
        </mxCell>
        <mxCell id="L9cUNZ-uKrun5VPk3kAT-36" value="" style="endArrow=classic;html=1;rounded=1;entryX=0;entryY=0.25;entryDx=0;entryDy=0;exitX=0.988;exitY=0.468;exitDx=0;exitDy=0;exitPerimeter=0;" parent="1" source="VuztZd5diSc5d07SC9xR-42" target="L9cUNZ-uKrun5VPk3kAT-30" edge="1">
          <mxGeometry width="50" height="50" relative="1" as="geometry">
            <mxPoint x="700" y="150" as="sourcePoint" />
            <mxPoint x="810" y="150" as="targetPoint" />
          </mxGeometry>
        </mxCell>
        <mxCell id="L9cUNZ-uKrun5VPk3kAT-39" value="Mail" style="text;html=1;align=center;verticalAlign=middle;whiteSpace=wrap;rounded=0;" parent="1" vertex="1">
          <mxGeometry x="1240" width="60" height="30" as="geometry" />
        </mxCell>
        <mxCell id="L9cUNZ-uKrun5VPk3kAT-40" value="Webhook for provider confirmation" style="rounded=0;whiteSpace=wrap;html=1;" parent="1" vertex="1">
          <mxGeometry x="780" y="-236.53" width="170" height="88" as="geometry" />
        </mxCell>
        <mxCell id="L9cUNZ-uKrun5VPk3kAT-45" value="" style="endArrow=classic;html=1;rounded=1;exitX=0.25;exitY=0;exitDx=0;exitDy=0;" parent="1" edge="1">
          <mxGeometry width="50" height="50" relative="1" as="geometry">
            <mxPoint x="200" y="234" as="sourcePoint" />
            <mxPoint x="200" y="114" as="targetPoint" />
          </mxGeometry>
        </mxCell>
        <mxCell id="L9cUNZ-uKrun5VPk3kAT-46" value="" style="endArrow=classic;html=1;rounded=1;" parent="1" edge="1">
          <mxGeometry width="50" height="50" relative="1" as="geometry">
            <mxPoint x="255" y="-120" as="sourcePoint" />
            <mxPoint x="255" y="-10" as="targetPoint" />
          </mxGeometry>
        </mxCell>
        <mxCell id="L9cUNZ-uKrun5VPk3kAT-47" value="Provider Response Data" style="text;html=1;strokeColor=none;fillColor=none;align=center;verticalAlign=middle;whiteSpace=wrap;rounded=0;" parent="1" vertex="1">
          <mxGeometry x="108" y="170" width="88" height="30" as="geometry" />
        </mxCell>
        <mxCell id="L9cUNZ-uKrun5VPk3kAT-48" value="Provider Response Data" style="text;html=1;strokeColor=none;fillColor=none;align=center;verticalAlign=middle;whiteSpace=wrap;rounded=0;" parent="1" vertex="1">
          <mxGeometry x="725" y="50" width="88" height="30" as="geometry" />
        </mxCell>
        <mxCell id="L9cUNZ-uKrun5VPk3kAT-49" value="Provider Response Data" style="text;html=1;strokeColor=none;fillColor=none;align=center;verticalAlign=middle;whiteSpace=wrap;rounded=0;" parent="1" vertex="1">
          <mxGeometry x="725" y="180" width="88" height="30" as="geometry" />
        </mxCell>
        <mxCell id="L9cUNZ-uKrun5VPk3kAT-50" value="Provider Response Data" style="text;html=1;strokeColor=none;fillColor=none;align=center;verticalAlign=middle;whiteSpace=wrap;rounded=0;" parent="1" vertex="1">
          <mxGeometry x="725" y="300" width="88" height="30" as="geometry" />
        </mxCell>
        <mxCell id="L9cUNZ-uKrun5VPk3kAT-51" value="" style="endArrow=classic;html=1;rounded=1;entryX=0;entryY=0.25;entryDx=0;entryDy=0;exitX=0.25;exitY=0;exitDx=0;exitDy=0;" parent="1" source="VuztZd5diSc5d07SC9xR-42" target="L9cUNZ-uKrun5VPk3kAT-40" edge="1">
          <mxGeometry width="50" height="50" relative="1" as="geometry">
            <mxPoint x="720" y="-170" as="sourcePoint" />
            <mxPoint x="770" y="-220" as="targetPoint" />
            <Array as="points">
              <mxPoint x="565" y="-215" />
            </Array>
          </mxGeometry>
        </mxCell>
        <mxCell id="L9cUNZ-uKrun5VPk3kAT-52" value="" style="endArrow=classic;html=1;rounded=1;entryX=0.75;entryY=0;entryDx=0;entryDy=0;exitX=0;exitY=0.75;exitDx=0;exitDy=0;" parent="1" source="L9cUNZ-uKrun5VPk3kAT-40" target="VuztZd5diSc5d07SC9xR-42" edge="1">
          <mxGeometry width="50" height="50" relative="1" as="geometry">
            <mxPoint x="720" y="-170" as="sourcePoint" />
            <mxPoint x="770" y="-220" as="targetPoint" />
            <Array as="points">
              <mxPoint x="655" y="-170" />
            </Array>
          </mxGeometry>
        </mxCell>
        <mxCell id="L9cUNZ-uKrun5VPk3kAT-53" value="" style="endArrow=classic;html=1;rounded=1;exitX=-0.008;exitY=0.665;exitDx=0;exitDy=0;exitPerimeter=0;" parent="1" source="L9cUNZ-uKrun5VPk3kAT-25" edge="1">
          <mxGeometry width="50" height="50" relative="1" as="geometry">
            <mxPoint x="1070" y="47" as="sourcePoint" />
            <mxPoint x="960" y="47" as="targetPoint" />
          </mxGeometry>
        </mxCell>
        <mxCell id="L9cUNZ-uKrun5VPk3kAT-55" value="Pending Notification sent within retry limit" style="text;html=1;align=center;verticalAlign=middle;whiteSpace=wrap;rounded=0;" parent="1" vertex="1">
          <mxGeometry x="716" y="125" width="106" height="30" as="geometry" />
        </mxCell>
        <mxCell id="L9cUNZ-uKrun5VPk3kAT-57" value="Awaiting Confirmation Notification within retry limit" style="text;html=1;align=center;verticalAlign=middle;whiteSpace=wrap;rounded=0;" parent="1" vertex="1">
          <mxGeometry x="490" y="-170" width="60" height="30" as="geometry" />
        </mxCell>
        <mxCell id="L9cUNZ-uKrun5VPk3kAT-58" value="" style="endArrow=classic;html=1;rounded=1;exitX=0;exitY=0.75;exitDx=0;exitDy=0;" parent="1" source="L9cUNZ-uKrun5VPk3kAT-30" edge="1">
          <mxGeometry width="50" height="50" relative="1" as="geometry">
            <mxPoint x="810" y="180" as="sourcePoint" />
            <mxPoint x="700" y="175" as="targetPoint" />
          </mxGeometry>
        </mxCell>
        <mxCell id="L9cUNZ-uKrun5VPk3kAT-60" value="" style="endArrow=classic;html=1;rounded=1;entryX=0;entryY=0.25;entryDx=0;entryDy=0;exitX=0.988;exitY=0.468;exitDx=0;exitDy=0;exitPerimeter=0;" parent="1" edge="1">
          <mxGeometry width="50" height="50" relative="1" as="geometry">
            <mxPoint x="700" y="19.999999999999993" as="sourcePoint" />
            <mxPoint x="842" y="19.999999999999993" as="targetPoint" />
          </mxGeometry>
        </mxCell>
        <mxCell id="L9cUNZ-uKrun5VPk3kAT-61" value="" style="endArrow=classic;html=1;rounded=1;exitX=0;exitY=0.75;exitDx=0;exitDy=0;" parent="1" edge="1">
          <mxGeometry width="50" height="50" relative="1" as="geometry">
            <mxPoint x="840" y="49.129999999999995" as="sourcePoint" />
            <mxPoint x="700" y="49.129999999999995" as="targetPoint" />
          </mxGeometry>
        </mxCell>
        <mxCell id="L9cUNZ-uKrun5VPk3kAT-62" value="" style="endArrow=classic;html=1;rounded=1;exitX=0;exitY=0.75;exitDx=0;exitDy=0;" parent="1" edge="1">
          <mxGeometry width="50" height="50" relative="1" as="geometry">
            <mxPoint x="839" y="300" as="sourcePoint" />
            <mxPoint x="699" y="300" as="targetPoint" />
          </mxGeometry>
        </mxCell>
        <mxCell id="L9cUNZ-uKrun5VPk3kAT-63" value="" style="endArrow=classic;html=1;rounded=1;entryX=0;entryY=0.25;entryDx=0;entryDy=0;exitX=0.988;exitY=0.468;exitDx=0;exitDy=0;exitPerimeter=0;" parent="1" edge="1">
          <mxGeometry width="50" height="50" relative="1" as="geometry">
            <mxPoint x="698" y="270" as="sourcePoint" />
            <mxPoint x="840" y="270" as="targetPoint" />
          </mxGeometry>
        </mxCell>
        <mxCell id="L9cUNZ-uKrun5VPk3kAT-64" value="Pending Notification sent within retry limit" style="text;html=1;align=center;verticalAlign=middle;whiteSpace=wrap;rounded=0;" parent="1" vertex="1">
          <mxGeometry x="716" width="106" height="30" as="geometry" />
        </mxCell>
        <mxCell id="L9cUNZ-uKrun5VPk3kAT-68" value="Pending Notification sent within retry limit" style="text;html=1;align=center;verticalAlign=middle;whiteSpace=wrap;rounded=0;" parent="1" vertex="1">
          <mxGeometry x="716" y="250" width="106" height="30" as="geometry" />
        </mxCell>
        <mxCell id="L9cUNZ-uKrun5VPk3kAT-69" value="" style="endArrow=classic;html=1;rounded=1;entryX=-0.002;entryY=0.338;entryDx=0;entryDy=0;exitX=1;exitY=0.25;exitDx=0;exitDy=0;entryPerimeter=0;" parent="1" edge="1">
          <mxGeometry width="50" height="50" relative="1" as="geometry">
            <mxPoint x="960" y="140.5" as="sourcePoint" />
            <mxPoint x="1095" y="139.5" as="targetPoint" />
          </mxGeometry>
        </mxCell>
        <mxCell id="L9cUNZ-uKrun5VPk3kAT-70" value="" style="endArrow=classic;html=1;rounded=1;entryX=-0.002;entryY=0.338;entryDx=0;entryDy=0;exitX=1;exitY=0.25;exitDx=0;exitDy=0;entryPerimeter=0;" parent="1" edge="1">
          <mxGeometry width="50" height="50" relative="1" as="geometry">
            <mxPoint x="960" y="265.5" as="sourcePoint" />
            <mxPoint x="1095" y="264.5" as="targetPoint" />
          </mxGeometry>
        </mxCell>
        <mxCell id="L9cUNZ-uKrun5VPk3kAT-71" value="" style="rounded=0;whiteSpace=wrap;html=1;" parent="1" vertex="1">
          <mxGeometry x="1094.67" y="120" width="120" height="100" as="geometry" />
        </mxCell>
        <mxCell id="L9cUNZ-uKrun5VPk3kAT-72" value="External Provider X" style="rounded=0;whiteSpace=wrap;html=1;" parent="1" vertex="1">
          <mxGeometry x="1095.29" y="250" width="120" height="60" as="geometry" />
        </mxCell>
        <mxCell id="L9cUNZ-uKrun5VPk3kAT-73" value="" style="endArrow=classic;html=1;rounded=1;exitX=-0.008;exitY=0.665;exitDx=0;exitDy=0;exitPerimeter=0;" parent="1" edge="1">
          <mxGeometry width="50" height="50" relative="1" as="geometry">
            <mxPoint x="1094" y="170" as="sourcePoint" />
            <mxPoint x="960" y="171" as="targetPoint" />
          </mxGeometry>
        </mxCell>
        <mxCell id="L9cUNZ-uKrun5VPk3kAT-74" value="" style="endArrow=classic;html=1;rounded=1;exitX=-0.008;exitY=0.665;exitDx=0;exitDy=0;exitPerimeter=0;" parent="1" edge="1">
          <mxGeometry width="50" height="50" relative="1" as="geometry">
            <mxPoint x="1094" y="289.5" as="sourcePoint" />
            <mxPoint x="960" y="290.5" as="targetPoint" />
          </mxGeometry>
        </mxCell>
        <mxCell id="L9cUNZ-uKrun5VPk3kAT-75" value="Recipient(s)" style="shape=umlActor;verticalLabelPosition=bottom;verticalAlign=top;html=1;outlineConnect=0;" parent="1" vertex="1">
          <mxGeometry x="1330" y="129.25" width="30" height="60" as="geometry" />
        </mxCell>
        <mxCell id="L9cUNZ-uKrun5VPk3kAT-76" value="Recipient(s)" style="shape=umlActor;verticalLabelPosition=bottom;verticalAlign=top;html=1;outlineConnect=0;" parent="1" vertex="1">
          <mxGeometry x="1330" y="250" width="30" height="60" as="geometry" />
        </mxCell>
        <mxCell id="L9cUNZ-uKrun5VPk3kAT-77" value="" style="endArrow=classic;html=1;rounded=1;exitX=1;exitY=0.5;exitDx=0;exitDy=0;entryX=0.938;entryY=0.373;entryDx=0;entryDy=0;entryPerimeter=0;" parent="1" edge="1">
          <mxGeometry width="50" height="50" relative="1" as="geometry">
            <mxPoint x="1215.29" y="160" as="sourcePoint" />
            <mxPoint x="1329.29" y="160" as="targetPoint" />
          </mxGeometry>
        </mxCell>
        <mxCell id="L9cUNZ-uKrun5VPk3kAT-78" value="" style="endArrow=classic;html=1;rounded=1;exitX=1;exitY=0.5;exitDx=0;exitDy=0;entryX=0.938;entryY=0.373;entryDx=0;entryDy=0;entryPerimeter=0;" parent="1" edge="1">
          <mxGeometry width="50" height="50" relative="1" as="geometry">
            <mxPoint x="1214.67" y="280" as="sourcePoint" />
            <mxPoint x="1328.67" y="280" as="targetPoint" />
          </mxGeometry>
        </mxCell>
        <mxCell id="L9cUNZ-uKrun5VPk3kAT-79" value="SMS" style="text;html=1;align=center;verticalAlign=middle;whiteSpace=wrap;rounded=0;" parent="1" vertex="1">
          <mxGeometry x="1240" y="125" width="60" height="30" as="geometry" />
        </mxCell>
        <mxCell id="L9cUNZ-uKrun5VPk3kAT-80" value="Notification" style="text;html=1;align=center;verticalAlign=middle;whiteSpace=wrap;rounded=0;" parent="1" vertex="1">
          <mxGeometry x="1240" y="250" width="60" height="30" as="geometry" />
        </mxCell>
        <mxCell id="L9cUNZ-uKrun5VPk3kAT-82" value="" style="shape=image;verticalLabelPosition=bottom;labelBackgroundColor=default;verticalAlign=top;aspect=fixed;imageAspect=0;image=https://w7.pngwing.com/pngs/172/286/png-transparent-twilio-hd-logo.png;" parent="1" vertex="1">
          <mxGeometry x="1107.54" y="140" width="95.5" height="30" as="geometry" />
        </mxCell>
        <mxCell id="L9cUNZ-uKrun5VPk3kAT-83" value="Twilio Provider" style="text;html=1;strokeColor=none;fillColor=none;align=center;verticalAlign=middle;whiteSpace=wrap;rounded=0;" parent="1" vertex="1">
          <mxGeometry x="1100" y="185" width="109.33" height="20" as="geometry" />
        </mxCell>
        <mxCell id="L9cUNZ-uKrun5VPk3kAT-84" value="Provider Response Data" style="text;html=1;strokeColor=none;fillColor=none;align=center;verticalAlign=middle;whiteSpace=wrap;rounded=0;" parent="1" vertex="1">
          <mxGeometry x="670" y="-130" width="88" height="30" as="geometry" />
        </mxCell>
        <mxCell id="L9cUNZ-uKrun5VPk3kAT-85" value="" style="endArrow=classic;html=1;rounded=1;exitX=1;exitY=0.25;exitDx=0;exitDy=0;entryX=0.75;entryY=0;entryDx=0;entryDy=0;" parent="1" source="L9cUNZ-uKrun5VPk3kAT-40" target="L9cUNZ-uKrun5VPk3kAT-25" edge="1">
          <mxGeometry width="50" height="50" relative="1" as="geometry">
            <mxPoint x="1000" y="90" as="sourcePoint" />
            <mxPoint x="1050" y="40" as="targetPoint" />
            <Array as="points">
              <mxPoint x="1185" y="-215" />
            </Array>
          </mxGeometry>
        </mxCell>
        <mxCell id="L9cUNZ-uKrun5VPk3kAT-86" value="" style="endArrow=classic;html=1;rounded=1;entryX=1;entryY=0.75;entryDx=0;entryDy=0;exitX=0.25;exitY=0;exitDx=0;exitDy=0;" parent="1" source="L9cUNZ-uKrun5VPk3kAT-25" target="L9cUNZ-uKrun5VPk3kAT-40" edge="1">
          <mxGeometry width="50" height="50" relative="1" as="geometry">
            <mxPoint x="1000" y="90" as="sourcePoint" />
            <mxPoint x="1050" y="40" as="targetPoint" />
            <Array as="points">
              <mxPoint x="1125" y="-171" />
            </Array>
          </mxGeometry>
        </mxCell>
        <mxCell id="L9cUNZ-uKrun5VPk3kAT-87" value="Provider Response Data" style="text;html=1;strokeColor=none;fillColor=none;align=center;verticalAlign=middle;whiteSpace=wrap;rounded=0;" parent="1" vertex="1">
          <mxGeometry x="1026.67" y="-110" width="88" height="30" as="geometry" />
        </mxCell>
        <mxCell id="L9cUNZ-uKrun5VPk3kAT-88" value="Request via Webhook Link" style="text;html=1;strokeColor=none;fillColor=none;align=center;verticalAlign=middle;whiteSpace=wrap;rounded=0;" parent="1" vertex="1">
          <mxGeometry x="1202.42" y="-110" width="88" height="30" as="geometry" />
        </mxCell>
        <mxCell id="L9cUNZ-uKrun5VPk3kAT-89" value="" style="rounded=1;whiteSpace=wrap;html=1;strokeColor=#82b366;fillColor=#d5e8d4;opacity=50;" parent="1" vertex="1">
          <mxGeometry x="1060.62" y="-340" width="40" height="40" as="geometry" />
        </mxCell>
        <mxCell id="L9cUNZ-uKrun5VPk3kAT-90" value="Scheduler Process" style="text;html=1;strokeColor=none;fillColor=none;align=left;verticalAlign=middle;whiteSpace=wrap;rounded=0;" parent="1" vertex="1">
          <mxGeometry x="1115.29" y="-335" width="100" height="30" as="geometry" />
        </mxCell>
        <mxCell id="L9cUNZ-uKrun5VPk3kAT-92" value="" style="endArrow=classic;html=1;rounded=1;exitX=1;exitY=0.5;exitDx=0;exitDy=0;entryX=0.938;entryY=0.373;entryDx=0;entryDy=0;entryPerimeter=0;" parent="1" edge="1">
          <mxGeometry width="50" height="50" relative="1" as="geometry">
            <mxPoint x="1216" y="30" as="sourcePoint" />
            <mxPoint x="1330" y="30" as="targetPoint" />
          </mxGeometry>
        </mxCell>
        <mxCell id="9TcSAuDaNza0v1XwdsAQ-1" value="Provider Response Data" style="text;html=1;strokeColor=none;fillColor=none;align=center;verticalAlign=middle;whiteSpace=wrap;rounded=0;" parent="1" vertex="1">
          <mxGeometry x="990" y="50" width="88" height="30" as="geometry" />
        </mxCell>
        <mxCell id="9TcSAuDaNza0v1XwdsAQ-2" value="Provider Response Data" style="text;html=1;strokeColor=none;fillColor=none;align=center;verticalAlign=middle;whiteSpace=wrap;rounded=0;" parent="1" vertex="1">
          <mxGeometry x="990" y="170" width="88" height="30" as="geometry" />
        </mxCell>
        <mxCell id="9TcSAuDaNza0v1XwdsAQ-3" value="Provider Response Data" style="text;html=1;strokeColor=none;fillColor=none;align=center;verticalAlign=middle;whiteSpace=wrap;rounded=0;" parent="1" vertex="1">
          <mxGeometry x="990" y="290" width="88" height="30" as="geometry" />
        </mxCell>
        <mxCell id="9TcSAuDaNza0v1XwdsAQ-5" value="X Request Data" style="text;html=1;strokeColor=none;fillColor=none;align=center;verticalAlign=middle;whiteSpace=wrap;rounded=0;" parent="1" vertex="1">
          <mxGeometry x="960.62" y="240" width="140" height="30" as="geometry" />
        </mxCell>
        <mxCell id="9TcSAuDaNza0v1XwdsAQ-7" value="Twilio Request Data" style="text;html=1;strokeColor=none;fillColor=none;align=center;verticalAlign=middle;whiteSpace=wrap;rounded=0;" parent="1" vertex="1">
          <mxGeometry x="955.29" y="120" width="140" height="30" as="geometry" />
        </mxCell>
        <mxCell id="9TcSAuDaNza0v1XwdsAQ-8" value="Mailgun Request Data" style="text;html=1;strokeColor=none;fillColor=none;align=center;verticalAlign=middle;whiteSpace=wrap;rounded=0;" parent="1" vertex="1">
          <mxGeometry x="954.67" y="-10" width="140" height="30" as="geometry" />
        </mxCell>
        <mxCell id="9TcSAuDaNza0v1XwdsAQ-9" style="edgeStyle=orthogonalEdgeStyle;rounded=0;orthogonalLoop=1;jettySize=auto;html=1;exitX=0.5;exitY=1;exitDx=0;exitDy=0;" parent="1" source="9TcSAuDaNza0v1XwdsAQ-7" target="9TcSAuDaNza0v1XwdsAQ-7" edge="1">
          <mxGeometry relative="1" as="geometry" />
        </mxCell>
        <mxCell id="9TcSAuDaNza0v1XwdsAQ-11" value="Provider Response Data" style="text;html=1;strokeColor=none;fillColor=none;align=center;verticalAlign=middle;whiteSpace=wrap;rounded=0;" parent="1" vertex="1">
          <mxGeometry x="340" y="370" width="88" height="30" as="geometry" />
        </mxCell>
        <mxCell id="9TcSAuDaNza0v1XwdsAQ-12" value="" style="endArrow=classic;html=1;rounded=1;exitX=0;exitY=0.75;exitDx=0;exitDy=0;entryX=1;entryY=0.75;entryDx=0;entryDy=0;" parent="1" source="VuztZd5diSc5d07SC9xR-42" target="L9cUNZ-uKrun5VPk3kAT-18" edge="1">
          <mxGeometry width="50" height="50" relative="1" as="geometry">
            <mxPoint x="323" y="334" as="sourcePoint" />
            <mxPoint x="530" y="169" as="targetPoint" />
            <Array as="points">
              <mxPoint x="470" y="270" />
              <mxPoint x="470" y="370" />
            </Array>
          </mxGeometry>
        </mxCell>
        <mxCell id="9TcSAuDaNza0v1XwdsAQ-13" value="Create Worker for queue" style="text;html=1;strokeColor=none;fillColor=none;align=center;verticalAlign=middle;whiteSpace=wrap;rounded=0;" parent="1" vertex="1">
          <mxGeometry x="428" y="125" width="88" height="30" as="geometry" />
        </mxCell>
        <mxCell id="L9cUNZ-uKrun5VPk3kAT-1" value="" style="shape=image;verticalLabelPosition=bottom;labelBackgroundColor=default;verticalAlign=top;aspect=fixed;imageAspect=0;image=https://www.duocircle.com/wp-content/uploads/2021/05/mailgun-logo.png;" parent="1" vertex="1">
          <mxGeometry x="1103.1899999999998" y="-10" width="104.2" height="50" as="geometry" />
        </mxCell>
        <mxCell id="PmZetOY6otV7ztlLDBIt-1" value="" style="shape=image;verticalLabelPosition=bottom;labelBackgroundColor=default;verticalAlign=top;aspect=fixed;imageAspect=0;image=data:image/png,UklGRi47AABXRUJQVlA4WAoAAAAIAAAASwQAhQEAVlA4IE46AAAwFwGdASpMBIYBPm02mkikIyKhIzKpMIANiWNu/D65i89+pevlPgHvz//T/3j9vfGgv53v+8f4X/Af4r9o/oSq39o/rn5f/H3lrUG+vvwb+n/vf5CfNP/W/8/2JfsD/R/n/9BX8a/kH+i/tn+R/Yb6xei795PUZ/Vf7V/5/8X+//zA/8j/jf0v30f4f/Qfrb/ovkA/qX91/9Xrh+y1+3nsBf0j/I/9P1wP24/4Hyh/tL+2PwQf0b/Qf/z9yfgA/+nqAf9jrT+rv+O/vPcx/nf7p59+df2JtxXj7Uf5L98v4vrt/pe8/50agv5R/R/8332/axAB/S/61+xHrgfV/9D0H/mv8x7AH9+/cjjkvwf/V9gT+Z/2L9k/Ye+r/QZ9X+wt/RP8D6Yf/////wQ/c////+74a/3J/////F0UlTz0+9TE8s9ym6C9uIbXQbhzo9GwG7KuaceO89PvWVM0kqeen3rKmaSVPPT71lTNJKnnp96ypmfpFFkdXJBqfsZd/I5Q1iNTcE69zj81EWVM0kqeen3rKmaSVPPT71lTNJKnnp96ypmfhsip/E6cD5XT3ocV6bRxnFRt9SQYIcvvWVM0kqeen3rKmaSVPPT71lTNJKnnp96x4BcV/4CaP4xhd41n0Xt1SxYVL0ymFnFWT4S3NzQ+p+UMqe/QoEi71lTNJKnnp96ypmklTz0+9ZUzSSp56feHSX5X/6wT0x2ffWltO2x5ELcN9ZSVPPT71lTNJKnnp96ypmklTz0+9ZUzPwo/p70bxoxUXaypmf5JkPB7viRo6ye+m+KgXxlJKnnp96ypmklTz0+9ZUzSSp5HeoHh9tlHJf90ky9pJXbKSVPPT71jyjhUSImIpeJ1D4pNu3Vq1JKnnp96ypmklTz0+9ZUzSSp504RnrFtcswblYi8ZZNQEYi7z0+9ZUzPsA9vGmN1wmAImT4Sll7ZbOSKmaSOkOK4xEgV90YyIpj97b8mVJU2UyKMtLjJSn+wHEkcB8n0I0G+r4EbO+dnYgzGSNQ6B/6iAOkaJBFIr8WqZpJU89Dc8czDmzz5avNON/PD3U98h7KD7/iGq7+u8XUMa//l2+t4S7Z5SnlGqyePiLJvPf3rMP4P7smwFTrrUXuphf7n4oHI9ShjdlCMDvvGbAPF73y1Bj2x0oON6O2Lq3k8TNJ2vh6dRb6KhbIfhftj+3y9AbLsdRVmoCekHk3q5bGrry4SAioGka1Ip56fesqeMsvIBve+ZXAhtY6QMmI0bUAKaZBok5n2xiq9cCJpMKjehUbp/7+pHYOL201aRnYM7W2N7pPWU2PaPR5nMaDTmGS5csuY7JZgLm0TYC997QGjNHmgcSyDI6mpEgT4IIh1PfAgsMSdkAhV4yNUmB9VJM4sK+wOymgFu4t35yPsA5rrpUzSSp56U6H3ugFFmkLho+AOIy8ibEbiZzEqeXIbqoC+Ja/7l28uzLz/mUFeB0+2wXke+Sz/p44aYICQ82CXgy5k6qo8veRKl9hLBGmTSFBiv60ApBAVKrCtrdkxGpia1U0YjDdULZ527ECxZHEkWDEDgVF2sfPwYhQXappn5V6f53TNk+GNjNhhYIJpvFBK7RA1at/PLeGlfN0ToEWu1ymOmBVB8Vq0S7rwpxbzihlJzCa+P6uEU1gUBqpVU8xedSdQy156vkIsqZpJU1LjGIOXygb4pdcHqL+JystpeI0G/tUwNOuKhH2oUSzLRec7rE9DlNguHitwt0fBnx18uMf8Iu1lTNJHgB8+EruxkXaypmkjtWBErHwsXGEFXWHOKRH1MY0JjtsUOHlav2pgUt4FLIkPWY131VAlw+Kxz132fuzNKpGu7jq9u+ila208gcCou1Q+6fAW4uPvWVM0h4fBfIH3gQcYAhsp47rXSPD+2QEfi2b1VtP9uHNEQjdnfVXzoYVv4y3fF7BdNdV3GT2XE+zToYJmndPwm8dQ+WHDLoFRdgffnjtkFd+O84SMT7s43bOfWN4FRbw7mUcd98ZPsYjqSTOCqwpzHdlJkwBKbnavyaGrJxB50swabSzYW8BQrhAHR3nZh5XMSJl2BjkTKR0xz0Z6NBZEriLfVn7oKbT/k8tuUTguzjept8C/2QwIjtf0C8Nj6zQpFmffk3lqK90Onm6GubUTgd+pG1xSDXQKkqhboW85P8UwOB1caPOQ2vkwIsDq3HF9S6yWbOnEd6FjW5QK6kOjhfv4XRXA6Qdy67AhiGA7PtskkgfBvOoJMr3ymO8kUadkOLyOiSi+PqGFbpZbZM5NfnW1ZJrqtewQHVwfQic129cAyzS/yKplOPfrpn+yB2vX/QzQq4LYf+8XdbRsPosbhguw0kSYyaKtPvTssAEactieZZkeYKyxri3GGyeEe3L8y4zZ1BnZ7cXnorxoCDKizOR18iwdShyeuFrJU/RI6e9BeK34FKfWtd2s3pMSRC5+jxmWwlm4gD1EVG3H45/TQc5dIHL7+BTpcNLyN6J0QRxEH3xjnlwdW5FFdiIveD3/8RC7yypmklTz0+9ZVgfxA4FUEB2fesvOGxA3uFVADvzlStR38e3D0lLwbYjLXqnIHQwXOTnubV7lAryb7yL9rKmaSVPPT71lTNJKnnp96ypmklTz0+9UBFtZ/4dbBCuHjicZjbE9Qf3Brs4Mjdp61P7b75KUHXB8X0f49cQ5Ap56fesqZpJU89PvWVM0kqeen3rKmaSVPPUQ2udS63QIfKCyCCu0L9wdBR6aqOQbDKq88nqeYcU+omtL69XPpRXHeen3rKmaSVPPT71lTNJKnnp96ypmklTz0+9spWMkUwepTAKSg7yubj8GBMDTcPz3D6bFGen3rKmaSVPPT71lTNJKnnp96ypmklTz0+9ZUzPWp9OrInaH8odhf95Xf/38/MGlogcCou1lTNJKnnp96ypmklTz0+9ZUzSSp56fesfI7dyM0RNguhYuzwS9ZUzSSp56fesqZpJU89PvWVM0kqeen1QAAP79KwWvOTPzRlryW9k5K6BHexa7hzDPXxgJvZE+8e0Kyvmq6EXRtKQSzahzaiGgtcyE+q/ESncFdzjfg4gpl/uZ3oA6KXxbhRpsBWNON2Q18zy/BD8OjuzQ1gylR0Eib7lO6NSOCA6IMjFSxSNs2B+7iRXv/zBGLdACB7srhMx05DC804AC+hMDe8yXHanBUDk+omGjskan+67BqpLDK8tN5YsZq9zohatvhp7fB9EcfQs1vOIWedBCc/sAAAAAZ60xn3WeDjY4QpYzj4XJk3RxopwXA8UT9AmsjViHA1Ikxx3K1oRGlc908tm/rNAKyVxppsRguy1g4RmvBelopNobwACliXSYVedrPueuxbM71/yQjTMBBGnNA6vnU/KXWL5sAlkbzSohZUFIpWp/3LDtwa9/E3Id8AouH10yjZ2cwel0gc/Nycyc9XH2vi1t93lxDNhKWlf7kSbERnRwClgHl+lBmoZbhnZ2HfqsByxmu/b6Cn3/enBl0Nt50+rgqc7AEbWXSVCDlzWyYrXFzzZSV23AlFl3hdL5re+4Y+AAAAAiYtop5rtG78Ienp9M5zJRTNTuLRFh4PvYvtZavCUlJhlr1G1ej+faeFSg3rWZuuH+L91KY3pO1RrX35IED+Yt8+cj3G8N5OlYqWf19bCtZVqavTsF5A0FhAsw2MbEZA56J+eKoFwoUa2UwFK+DZaN+PzxEqv5yghnK9wwAIyHwRkAw3OTVnla8So47xxIoBnUubWU+4pUIHwHYR8UyOL/A5Ifgu4z/1KbCfKCA/msPB0/BraOEQ6U1pzjJwdjT/TDKe3iM0agxUBrTgU5sFLMpBWPcBSGyDtzkzx4RZ1XcOAAAABl2JzJWVq2wzwFdjUo5HWtrfCBp/IQS3iL6VzB8DkAVIpQSFoF9ZWTkiF5/rzNExLCe5ov0F4dpCwd7TbNDbLC3nJhVihvCYpsCFiGkcMbl/G79WHIcst/P2TSGH0OrlPzBlQt66O1+55uCgXDbE/F9OovfLMvbbav7C+bJxF4fy2OOOTyWbvQbyMR6YjFKSG6zUf38EfAJxJ8dNecxrg1lLNdzSJUZMXlxr95dp3x1uJa2jtLsYwVSHNBIJdo2oxi3wf0wXXD8fhkJ7NRIUNPH/bfDFL+wHy3H5Se/XrelDE1U/umX15YPRLJu4+Ulr+CxSDYEU4GpNfYvPPrdj+xY9FDix1l7/GzgkJTS0BEbBTK09CJypY73lqd6W6EWBactpKBMvF0Rg20gCfTukU5IdV2Qxv9W8dUsMTO78A4qHORFVOG6tTJixWOhfpuEOiWXQxfbBqM2CEnyHhzjh/kpbJvPrqKEqtHk7odpwfjH5JpH2jA0iVyPmacjmNoOF7WQHbj+PytAzAIyzECZnWlwAAAAPN4lo8PtFLfa3M21QW9N4XP70K15/FZiqryqTwWxj2EBTqHMmIYhAaeijA/dHw8QeWrG7ENDuMOqddViO+jx1FBBQH7rgXVBZoMWGg58ZplFDI+PAGEAYe+XX7N0yD7ec+cyBNkWovQZoqZ0vMjOR6cZpo/wkkd08QXd4mFQPC/eWcAAAAed4sihIWIJnvq0JKZSqwiBSBHC54IpgmN/bvf1Pr/wit8GmBkZcRuBazN/dCrWbK1kDDcyY8RM0h3uqw90YGPKJ3/4h2EOBxuDEbq4HkgAZh8rQHU3dl+ziBcPd7Key9VbvQm7rmU0KWWPklLmY3CkjRihmNE0tqnoZNDV2tNBVi2dpFjfOmodzAjYTZy9TV/+pOcxVIF8N0vvkTqZmIVyV4Yp5ghJ6u4kOL0L9+QAmK7BlHL1LnCGpOSTTAMg+nU0IOR3203Mfr1XpnzuMIAAADQRgJxY0a9rQIm77Ob/0H7H+dK1NnN4mV2WatSBwRjiWEQMPB2/8wNzdgqaX+eD9jBFjwx0YQzO/MdBeq35hnM1BAncSmn7eNbSGAm8YgKdRYvw/4SGt3osPhal61flOQyKxierPkxkbv/n8yHmS+yT3FH7ZukEueEuRVf/tlIVYV9zkSXN3bAAecveE6ww2R7lIMrpfLnDwe+KeK0Oim9hYF1Sr6aoLecTRnlKCtFv2N7VBXLK07DX1WKxV1a+6DU6FkLu3B0a2QLUdK39B5bHCd0CaqVr4fl6VYmrdJk/+rflkvZXckPa6oSnaDAU+FZTedQ9QDSyR8/sf3z3nrsveT9OGj2USo9OGa4uZyrpxLYKSwkWkDXqvmoOZsBX7pmf0AAAGWIg4b8LelD1CE/nFN7K8i2I/lXn2S7/lJSZb4wvc0senZegWHN/P9DrRl4bBW4DmfxKENbdfG7nNuABO6JjYh5w8S71PLn7OekXt/xyxDqKzxX4wxVdiHu75cM7yfOMxKLrB4lgzSgjFt6ABK+Td07mI7o5oXaXjmQHxtRWol1DVqgkFs97VR0opsqWoQNiqssoqMD48ABPgDP9LCd/aib5lOG8l4TXnnnwGLs9U/NheZl2MXgMnbrRbQ2vqAgKxRM0JUUQmHB4k6abVfgI1e/1j9jSwmgT4Plo0hzzBaefik3PHy1k3toJiHdtgK6kx3tPvv8OKPpOdBp03hNGX3kquFXwgRxNXbUvy8y6/A2jtmQORp1fFQplnxvQIMaJTgnKQ/0z11TUC/TUj/ydgHOYrapUMOtAaMxuh1yOyRfF55Hc22Po3Nj8RHRmp3L/1tt1aIzJc7MlcAL2PQaf5HPNkchfIxkHpAYrDD4fPnfzKY3s3vkwqHeAsNvn1BFM6gBcC8/my9ftkEpMXNL43hgKah/Ii9OCt570hVhSS35AhpwDrmZGQSG8Y1a/EHFCWTE2857/QmR7Ax6Iktiv3AfWXjgx+MJmYuqvg28BIzW3RE/Isjk5Z2+QssykGBrkb0/XZQjC6nTGSvSVfm+SAXUsPwsFv4w5WbHeEdp9k6LJEk00DHXImYdPoR+2LTkMN2Qz4KKmgjh62bzHJkEtFgwI9YTn6fvwhHereFMaMzF02GYvG0qQzI+kSWtHpeqYEG9iROXjo7+wCR8hQS1lQ7FXgUFIZjUelaTc6oScowU8ER7D7smaH8OA6wiNK5b/NSVEFrEQbLJAse3crtelwCxklj7EI4H2HicwvPHYLLRgvodjWs0EkldiXh3sotEkbQUb587XWdkcoTkQQYYdTohIOZV3wJPrFzF340VtkadON/xQFx4ms/fz/kqMRklqTmSuCZPoG/vXJfPujCBS7k9Ia4yQHuTLHF4FzVZKCxgAO9B60dRjvvPmxSG0mtvkcOKDz0DepJVIIclFeGUcY1CAIrTA1MFV4yPjxAK/mIBpKRD4vqJsxLnrb8GNas9cvT07Lv5rdH36C45hcN6l96or/ZTqxLbUU0a9AEwDyMNgvj20aO6vx//fKUjWqlfFQpNVC3xz5jQffaWspvSljK0L6UPmdXSX11H0EAPFVnUsTNytSeaWyoOc900Jv0TqfW9U8vlaZ4M8f//BOyzp8RW3k3wUytUoSddPk/2QslD1LgUusw6r1gbG4W+S/K6eUDvsYZnUCIDbffud8blOzyKvvkRSAHLvPb/Ra1/EDdXk7+vIPFgXpdV1OHSnn3c8Jtg+TASh30rmp2jOpXjILD4tumuonE84SK9PYcgPI5I4bcTQUC9tBeuuDlC7//IIgHKnCyyIRljlirfPeAtouA7fux2ulkpCqNDsYjggc37N9cABkb4AJWC/x0DZiEuCMNpJym0JYtfwLHwaTiL76qQDLb/0O7IyasFdUEslDQ9c/uujNQpcwEwOCDpvZm1lNJCJGnUX5WinpY9PjBEB63e1JUPzaf/NxNmLFm62OnmvQ1SGEPbHj+037ZgqSstbmoaZtGmPEYb/XxPiCfuhzjRTd30371S1qn6CxEV/AtYXlsg7VXz6ceqniPDKAmn7iISSM3NEUkBMDDE4soJHWjyMkUXh748KjKhz4RQA2UlMTN6AiETpzuVrY23rS/C/aDjqsW+pWsEo3zIP499pBqBJzemMCfEiL0v15JgP3xqZ2ey6hj0QT8Ro3g0w46yEY4747AtyB4HPptH3i/gOFLAjQ++ilTVZYEp0R4SGZ5J6EhIbEGxzR5HZeIFM2kq0e8QaW3lmdtccPMq94C4AARN87j2pox3FjyZw5veQC/D2r93qA9TIqRUw18ry6y4RfAey+YSrWvaq1Oa5bIVB1oX+T1NBhZhHCbT/nOzjmdVHf/dvBwC1ZwrT98JJwtPhZ+NdkTpc8Khy8oLS20S3wZ7WDuopdyBWKnlSQeeHTFmfZnJCpVQtZmH2cXmaAClzNW4OKmWuM9FHUoLauTxSL1ctnqWwkz8TdK5WQaQAJaq2Nfj2vsvnDDZQBDoN4uMFt/gDDHcLB9NwROgPY2Lu30tLW7Ty7vk0ACCZLLtRU54tCI87UpK/S4ljPX5axo84CPxl8o3q3GA8oNAeHTRTEbsqq/eO9hq33aCqzK7sv7AE0QwLx0I2Dn3WIznwld714zWiZgrMSB/0j5V6DAV4QohKKdLyqhUSYlLSng/MIBW+/xxrHwk6ZqEui/O/2x8FV4OKmYX5W+dru4IIpNWv9EGT59KzyhGTC+2oqVuh176kXdRi4JD7/D1anhJyeX0Qs2ADyINxMxPbqXyeEHgHd+VVem2VVaYxDe5IA+KowLAlW3AFphnLNO5VcUe662NGmcCayIeJjtas3GrSXqvPknzkQl0Wj5moj2BfVi8sNVbnfdDZZZNWlo/9Gd/Mk9dzrbZF7Kswq86Sk7PWW4Wy2iHYEu6BrA4DRUqdS2NnKmP0fO1RHaDQE3kj6USbmnL49hGNLNSI/nnR6R2TV+y+3qoch2ZnP45rSNrdxg90o36whfYNRG3SOknFiW1USv8kL6q+2jvFeTZ1Z/SHHjstJmDxghNwBSergkIDP0lIhpnfUIBEuBKCVltRBXfhIkvuQfUgsLUmCn4hF3IcWS4rnmk3nGEGpjgjiY72d+K1b6iZ0OEScsCDCYC8GMAoOegW/r00PuVfkH4IY9WbxnMiNjeyN0p59s6C8mXywl9Njcx3NXnJu9FN7xgDzhkt+fUNnQpDv+1rLYGkIxYi5QLZr6otVdalxGLDsFbDByw5Z+7w8utANcHDzinlsbTS64C17nPUgFu8sqWRTWNyQ6TTw5NPcXOKwssCjOEnTQUgZQwFfcYEHWnphxcJGFQKLsvuQImGEqg7PNGsY6aF07DygwNiLTc2TtolIk42YmCfUZfNAKBj+GvZyET1kdeOBfcFHsB/oBMaQIVwz/5ntZAApDuCZZKLdj/Kgqzarkshja96sftZwuH/xqeSm6Rffwi1/d5kMLb4kBF/zXV3l8SHVTYIkWvc/iNK0vySMTn+YJHghJblaGxa6bfX3Sn7XEtacMXDdgdNNt8VuI8IY2W5/U15XqA0U7l/6wBXdjr6sq4AezdBu11FGsROZkrQxSmZYembvQcx0ygJsgcFhvD2F2MZcxQjYrR0QOGSIiIx4GU8a8mTlXsygC4VvNff8yPJfPuQYjZ/WGeJarGaDEMCfLvIyf44EEQq3ueTdOAjKEzsRWQ0gK5sorG4TAyCPZjsqS0Ffl81NclMuRDmi3JITFKYyQmGEgHxp6rl5QEtLjLaR48r3EUXpOE7veUn/i4NFzwN+64z5Hksyfo0Ru69rs6zQ6w8dUJL24+HSXFkMJepreUj2G/Rzl5MV141e+e2s/sP5NvdGO9+T4IsvUoJridYm/Ky0NzPY8kFl6wHEOmEbz3cPrmnI71qy2kcJ+huiSd7OTQ6uwa38ksPcU/2jk1R7UQxqYFRrbPlRkhp225YEMR0p5v/Qn4WlyfRUuOMW4/7sfg2dTIejOOmgV3rCmqAqW79wRUdSZ31NYxSTm/rbiA4oWXcZAcpJnkxAEcZmUqKFv0aDxPqR5ccH3iz+P+CR4yKsOGZB4fJR6s5EVUKoDASPb3gJjH1GGpt9tSJdCh1HaRSVV7r3AZx4GvCnavW0XOKKLbbFusQWeiikbas/VgtFKf1TGKc8g7hTcGVWSY89A1WG9b+wedByb+XGqaArAL8pY9xJoOrynwO+Syr/cqZzdNIRmtfskNo+NtIeDMZ0hs2dI/RZdE39t2WlhobbNRgW+7pzleY8Dd7IbcAXk4I5TUyFYaCJ36e/sdBgIksz1NxcOFiWQRLiivqRj/8Y+HfFAo3oEcjVkc6kWJo6nQmEKuzxjX7LI0MXpCudrixAXSm919TOLppTw8Tei/OSRIGy5ScZpFFEMOYS4cO9Gxn824kKke94ATyC9L1hymP9/4ib92gFqsrNEUx4MSvxebZaxwW+Py1ooZfrluQWA/N5tWUkKMYVhITDpeO0NmqdTkODF6Oh4kK0fIizMmPKWzkAOVmmXMSN/EYurs6VXS1ye4f6+sGESRpl6AeQWt0x3Mg4LvjGWvvhqsek0/pPr1G7uOqk9cUVirPoSHhhbGLNMHYE+TCTLLN5e3+pwt2gmiTgaWImQ+BhehgTJks8I90UxEyCc//+lyyhotbD5ijP1luy3Tzq43HL5ekWlJOou2C95ISS+CbXZIEzsU3yWcwVDe7Yk5myVcxJR7hhkafIc36oV3L7lfmIkO/wz4EuMsQkvNV2OVr5ZEHocR+8ETfBw6oiGqSi6hl4jId7JhI4wE71j1i/Nk41BaBjKJNF6GQEuLhNh+ETrpOcdLq18zvf5fGm8Cv7F+84cpsP/g7cXelCjpRmCiAnLYC/5cIuV7eRepPxHJRGRYYMAk6qzJ5hjpIXchhGk6l4OJWqte8XI5LdBQptBfEIFzRGPmHRkWtMb++I3LqHUmnq6vOYYZYFx9dFbtjpTlOiDkIkYZeGMJ6xbHFxUpxe3XWK2MkUVwe5A55TmWJeIaMcihEtZwW/D0/CbER3+j48mO04hu42ICWB8uN1KIAL8HADNy5878cR/2vKNxSmzeVpKHWAPUaJETeHkMW86tzFfIWmooTFYwoBdPnRSXDcP9HwcznMgwVEYtkyJDN7va4Rs8P9xP2zYNv87HDANA4zg6eTnk544eg7wsCB4N+C3kzs2u1aBRhY3LEHQ6R/xbPTeXRQNJF02mmhMVrStI7H79k5YYyNVjGCTRBHzYsyM5961symS/6AdP7t3Yl7jXDdMYNn6LnsAlzuu6J4cwv4Ko+8mGTZ8B+2CL2RSYxXFwJgOacPJtAnUH4suFD6QGRIaOLyVhnUL8BWv4w/ZsrGSgnrjhDK8+7Gv7RFrNslPBqwot2EL4SpXoqzqmPKiueuUiJU4/7wlJzIlcHg0NHgNLQ6GG4AsxH3fYgowHIxHAITJVFPnAR3KpI7l9gxhN/i9xft0b6KVh61oJas1AncU/QuWZUpkD1JgEio4BQTRsXWmuKOrH3NpRw2AQ5RBLwkmMewBtgugrQRoFXtkJ9nhHZ1Nr0vQoSE1JJ4jqhpiS89H6t6g1Fy/b+6D3kk8zzk8z77/w2Yjfuvc5MHv56oN8QRlujly1QPdAHJWYogNPNsMfapuHfQO8WQ11z34LjkkAjDnERYChfDkxS7EpY4Az7ZoKW736RzuMYoi3yl9QEdlwpg8iMxA4hU5vjdrAR/yv2Hlrj5Zkl2zaBxXURzPkhzlX6tLvuC+vXFv+4FQwWn8eWSicnlVM7n0iyLJG7eNwWo1pheEvha3bSbKlFZ951+LyGGLeDdczQA2Rd25qm2kDOSyUJdkHyx4QpfazmOYtUX039vGBFCX80dBQqAMI840Or6xiMhlLn/QrOeJeNEk13Hr4jjb5m1nKd08TX4ZzGt31FTuU5Bh3CQB/eq2i3XUJhO7obspBBXlM2enKNZPsIJyStnMq0xh9/6pb32QIVjEMxzsI1BlTybSNuo0cr83sCGgE7lf7WGECj4r5PzIcC9cWPjFCLQtHeGoYn7ajqstJMQ7hHj7ZsVecAgUJfd8VaZIhr3p1WxsCT7SLW69IcJQ6nHioVsNUndriTXPExwDbr4Hu4J6yCrHAoihCamwOsObNjthWPFBYW1Kx1hayhiPnTe6qWPmGBAvzah55EY/YuwklW7KJDlPlQgqi+YVJlXAmhDWZJCaB+RBZMECVtbDmM4XF5Sf3lbb+yjLRkTIdzVREqHRs/JqYjsM4p4XIWTmgLjsXY6QHVPFP3ExqptplGwMLJLmsDSUbCMnbli/cvhOMj9OVc9SO3bIEyYYl0fTNLLmwU1xzW7r0K8Y+DaESoIPsgEGySGW8iQMEzx4moAPr9VSj8/cUkquwqbb5mu/sv1rYIo2NWQOXcLjnjsFNvKbbMV+XnXnHrcruTIylS4HAbja0dSH/Adu1Qfyaze/5z85vGOUsjtkdLlro4k9gmJlALy5XGam2O2lu9k94F2qQYjpWnfveE1Vkgi1TwEVrGSO8tKY14pdoACD9bVXDo9fisDmqCCH6RRzFKveY09u6ESTCYtKNYrctIQZj8Bg9/tBLSG4RuW7e71BHEOOQnGXWk/Os9W7gHbv3FHb0rQAnqzlD/nqbObgMY5vdNjkTCjrimr3AS9atCUB6BRwwLq+/mg0CCZ2SFCXp0aQEwkOoJdUrJr++ZWoWzbLsJ8maHNIypjBiieIWGXPcTJf/tyl3XCvkixS5p0ECaIC4ht79T8aDRowxe3IQUsLS8eHupYsxQgnqHB4NgAASK4WcSIFUUWDVOguQ+1m1tBlRj0m8Zj7E8R6OnrY4wXimwqkXyd60/4TzcpZO1r84whPaRmb/0dwGKGIg9fL3N5avDE4PL04oSo5uqZQ6xVVWX/6I7UFDxxPdZq5u7aGzhR+2c61M0YNMQvQO3gTENCxs6tPs3BeEiDCxPiyCF/P9sUBRZ0kFm1uEXOp6KK1LBlkDHtRP05rjtG7P6E9iaGicLuEbcAg6VLPHQu6LyTgIVyT+PodEDlQsEr2LSW5s9UzVTvjJJuk6K43ABSaUjLxB8EAplFI1jUXTmR0/QyLcKWJME4RkjFbAl3ONh4Jc9IVnaDJsFH4A85S5si2KUn3onSC6K2UXWaz/IKd3KozHukHajO0E60HHdwUnBEeW5kj7biYgPAutl/pNM4PwxrzgM0nff4blMJCAYsmPTP8F9gZBF9YD8+KLjW2f8iB7yRsdq069iy4wDq+h7w5RInO5DYWvxBSWQ3xPxQaPuB+uewF0C4+ziwmTjIRxOKwdqg6uZhV4ZXMg+7hUB85X5W1ZIYg356nQ0j8o98o8lksK51In6WPSmb2uuwprHlMivzAvb0fUo3hbA6pKeQdHWcFoSQEuIpGn+95nnwyfWaAiZKE3sejFV7oqFTeFicpZVyXsxPVVEg0M1FpvSD0sMaKC6K1c9ORLNwv6YpIHfZekTKIygwn3I8jO30QsLBTKOJWumpyRNPZmY6JXZ/GNl2j8Pdlsaw7qkQbQFWysM/Z1pP2v3vSbGFG27SG0UTB34bxbb32CcTac25Y1jUnVW5JaAq110YxB5SIpjvy/6rmIcFLCQWKf/zBOKUP2jx8Z3CSzEfLvhGuTFT+GsMIQwCXxAHapmT0IMlSsNx3f1dCfqaZiSyDGrGAYzhZcS6wdDvP1L2Lg8Nsk4QQBZ0RzPqZM96oHQg/cwbmwBOQVFIVYN/PpDUxh4TOQeQM8q2yMqPiT0MCML4VNLCFBRxlTxAL5MIi21i61/toEEtXwbbg6ZWrv2cXrT5qHjsxH5OjMMk4AGsMmuCRhx1Ey/Gjlogvb25rsalHI4HVQAPPvkQYhqFYhLYZ/b1ViQHC37GfGa+gdQB8W9zjCsGXeIwfLt4ZfvLT1bj9MbABOomni2bXetRPkk0B1iXhuygmlW5AlUswy4xKPq4AkgLfdQ3oJDNLbpACz31tn+U8zuR2ME9H9JGXUUTALfGqfXpxyHTfco/hKjzKEVY0Ws9kJlWVtyt0ULzcEpwxTFMjyuQUXsVgtb/sNTb5EvxWhy3fBVDF68/120vpSgGrtBfUbHbtiI73wJ+djYrE7iQxakbBndDe1H9IAap056uauxgCA59AehsB4E901Zgav0e5uZSDY4tgBkUN3IkYxlVYptYYbmTCIkM9H5n3xxXWAiS7ii3HATUGiyHQXzbiiD86qKsai5JOUJjUzu86lPbBkzatEJn2Whyn6vp+xEkZEMOeYgB3TA2MPuSqBUMk13Ui/Wa4wLcBViKivDh8f8X1OPhcZ7YNV1X3gYaAd5GeXzu+Rn8tTwQ+sN2frAG9/NE9ftQ/qIregeBFqsIdlTdFFGUgqiccZmGRhW9uAU53kwMKOAaZ4O7Oa40uqX5vzl6xE+V11jj+sgASJHrBqduUtdzo8+LpyxJj1Z9GmAqWBmACMwfLUQIS0yJb3Yqq6R1FKmsojglx+2J+x+D7ZSFkxlZ4lj2Ie4CJioRhfP0BqY5L92NabvEXM8RqX7+rX5kNluxJkMII3XXNuNDEyZaua3XqU+LC2rH3y5Ty+rq9B5prXNGPS/LS6ZdzhwjJjxl9JtmYMEWQNSJZYLnsk8bHE36EBYcClDn5S3UUb79/533/Si8/bdkdVLsHPYEQp19/FkdS+b6Ir9it4KHXtbwA7+tkn5ox/L7b7cpWhCCPJqSQJVVedDYCltbpXQqw5hsv/L2sFfCmEh32O+HxZ2YoG4WRYfp/Vtdk16jyITIWz6uTSCYhaeHyw83KZOLTRseEb4cxJ6ScntSqLlLbOVltxUlkJYESONbP6ebhrLRmPqeBEtJDps+2EoKk/J8wnlaRcMfYHWoCpRrWW3y15udIxwWT927lluGQrdsx3AfY61ZALZVeIQePKb/5VnedY22FhuMjUiTd3WQeOsUXFl4BUFGzGAemVrComBNY2RyGhpqnzjiJco9caNSR4/ArLE76uBehbRIBcJl+hyaxRf7LSinUBqKTbVM+ePhfrpND25QeDvfmlxX6vZiW4MSZTUfXkUvnvL0MS2ZZZhLuEomy3mrRfokug6r39OARrEx51bqQAGAvqgo/eJ0j9/NehJcGxQwXbMlrePb8+/1E0+PMT7AuFyCpnX6lf+SvvQ+/DrLWklb62RGOU4Ag5F6x1o9yyeuaxUZtQUugJLUyNo7BkNAJKjBl6c14bq7HXsaBS1btZhzjAD6tHa8Lg5nJa50Ax8CDg9oO5WSfrmfNVZL2TwVMVU58FYjmD26Aex2kNDemnbLXn8JBdakM/3rn8ZwluNo+eSR2qCpJEWTKpUPTtpBp6XmAjBiPMT3AqfL4l4+M75IHVmv4QPOBzmPjU/6mpuGhNlPHy503ZPv+XpQ/Kw+/ZJ5nnZmw4jieZIpb05t3cATrvz++A3rt5Bzu4qN5eyfsVfTM1FdVZk/9Psfi19oxMFoGTEighsUR17vHihSqG/R9vI/1+Z4oInoVsk7rdVfKPUnQQEZ0GPSMbtk+vNh1izPwe1T+MpFg7VW955LVlgp00ieByDpVn2sopvhbc6ODU3jmmTT6A6LR2Fp02XkC/6eagaJYOPrPouqURS95ykKsMG8OxjWNPSOQ65sR3I21f4PmHRlVzdKAxLVxl5AXZxhseW+L+HddMD+MQwu+S0tsBwZtMyNu+kpmRul4+nOV21P/y6vm1qohAiVKqT864Tpcmk/azk2p5YYX/PqW3Ts7ByZmzKiMI1V6C8j2mYgBVS4F7NviNf9CuPC84qepy9NbhNcGNAuCHdag+TZZfo5jf8qG1OwDhSabHO3Bt3ucZJ3oxxV3tEX9yrvNqyVksZ/d3/GkG6AWA8GLtHl7Sv+aekaTbQ2HH2FGbpu2lCwj6tSpgnjYtXLimxWClb0hSRq/Zi1TdAKml8DRlpNLvBYtKFWeR4/mBcMMGsQkRL3lDU+4KPBKruc9k7HQJePLrPNPzQ9S0JZ+GG0aCvxW6Z3jUVEodqQP9XRvf636OZTy44ledyyd9VlupRmrh+rwuScyH2YbQYSeI5dkGp83zklhqWSPrruHWILnlMZPF1qfSoimUKxGuD7zu4Oc9Pbvz+TAmJLYlMi91vW4CNfNksQBBRM2GpZqwl+QhpqDn+o6JNoFGkMhhP5aGk6q70J4/66iGBs9EvFWl89AvMdeIEWPTaSm6XVP2ox7AMXo03eJUrx9EsPdiWLg+/h8K7jF2vNl2YcJpdsVJ1CCe/1HfuU+54icGxN4bztFadTpQD7aemwhTfoHouQYf2+j3RERBOLeCIOSl4GuKeBJrnWZUEEumczMVqrDPfnfS3sCEquo1GD/NrcwgWSjS+sTmFf8CxqOV/FngX7uZh0isixNypDYvRqPC5QJlsE5F2nPFtf+VOX6M8fKxrK18aYEkiMlUFGpvo9agvlUMnYuMLvZglem8mK1ejpuiGtN/4nnKtNLd2Mfv6IIGky97203xIquuhFMz9pEoFvbBT1P52jFWB5rGjaoZVduXnSFP18a+jsutmowTi3oW7YWi0UMIhvwIo4zPYZIVLO7slEADOFFpZEJjoZNlpHwg+XVX3AVQnM1qMdqzM4mds9JhHKQ+s8i/hPxDYRTl4k1O3pbYP4947EpUJI3DHaGyDEXG7kmCMatKXisFlkbjf/pHfXgmLs3gtkEl63o90zPuWSZw8BLk1U26DO3N4NBFdBNs934V//vduOl9cUkPnBV3CTefHRPABtmeVnuFMD8ZkZtnnLU47JMZG8cK8xtE7wkR3P3Fo6q9BQ+3pI7Bm96vYZ0myQ4f7fw/swrOqDCVwD9Sv95UlMQbchDhAwaojJcAUcJErNMmfDj3rYhelJ0KfEBCnHbtc+onE8HqdtkVaxQZafQuFCD/2qaWeAzBk7fpMFiE3w7Mf1xzkdGgcHXFLK1Cz6B7nYfYfcpQBEZsuZwsIa8OhkumtAhK4nXZM2h/kM6/5Zv8DltUuUyvJpBTPI2BFI2gVYoS2/vX+gKl1FAHeNziFsR8N/NMClLk4NK8dtWjpGAH8+L3g0zN9MlUehiNAWccuZ1Ef/9pW8UgMj2c0xlOvpGc5E++3s29Zhlhwu1kMxOsOzrp4Q9XkYT4mzzRsaEqjHOe2klhHANHsYA1SUdO5g9WWqz0YqlwooyDHM2WzB/Xi+8tq2OGsWw02MW3o5kd1/1ef55JYhsvG0SgoAd0uOKBH0baeIGwEE8109Ws1w4BA6FJFL5ZTI/RXX8bwnuY2IIA2ABBudTWErg5ktOtTfLc8+xWOofqSsn3BZxD3Be3w/rUtssdpS4Ff7KX9mcK+pkTks4kOw83C5lKZMF3M0C+6aqIhFzlOKvODxbyo3JXUhKlhFfoRwsFi3PRW/9z/qJgsXc1qxoGU99m8/YngDxJ97Hy6tkwPp8yJQsQFJ3afgVxZDpVNrU4Z/fM5+kY8gsgnHcsKAOFWJ5yq8pQ5xPsEcam4CfoZQZ1AIy0FMtj5/7hRjxsetPH/PJ8EID2kYO8j44J0QvPNgxxH4UyZiNVlmYtlHztb9BBB65OjmsAE8Fqf3NBi1LduCKUh8T6YQQL+2yyko7xpdILZkdd14aicjeQzoZzjUN41d5EJwyh4PHU9HKm4iAq+3Y/ZzwWaPXsN9fHqaUAZw0HSeonqAsiOif76cNaNgJvsBXhEIvShcFOCeaa9oQ/xvAczxNpE/hPZVnzsiOXQUny0Af4ZvaUB2fjd7yM88zJCfAOxD6eHGOiNSiCwSKFTy8QOi4DZqRgBIRVFwGWkM9HilbWmAjBKdrNqtYkgMYWeUbFN17/f0y2Pw72ETj2shHZBBTtinoL3EEVymBcs8JCzRxDc5WCYsYPOBmym89eiuhWKq+OXAQ/mIr3g5JNnAJBakTwAAAAFAjL34P0APTbewqeACY3BUEcIDdRn9aTSKlnI+5xaqI3LnQ8R8b15KSqT0ictq9osUlqoNwp4plkeH5TgN0lcx4kfK4zcZxjzaNUCNqL5D2lf6ubaWGuegGDZIt0ufzaaNrBSjSl0xzWmbfJ9gjJWjUTwGFyCiGdqplSBAErAncYzSc3TNUucjriBjoA4qPe3srFgJp08irj8oTOibw7tNgnpshIZHQBB5UJE8wzjaB7MMzw8RcdtpZxWPahecLAGjgFSnnfRiGCTJT7/JUHBjx7Kdfdgf/jORK1kEXqEALnI4OOiAgApFQEpcegQeI6cAD/gJPbeqyMsbIfvgsks4gonQ6+ZJfehq6LxIg6Bts0xCG39fp9BXlQ6ocOmSTu6rFOd9tXgCM54a2kvLyPSSqj6rMyFh4F+/lsQDyzGwBpbH06O2AQwpQZ4+zTKWcoZ7pEW5sIPkohUNRVzg3m6kih3GYiHGBYb/7u8vzXvdpDaPcpOKVQ9+YoUjaY0NrL70YUtRacu9xIzF+/JEgMcnrCfkuflz9/VAwTEAH/vvDDguHHwmDetgyAxFBQk0Ujf/PEwzimmDJCz4YKA4lFUmupBBN/s7wDICa0ToiT7axsD5ds5GyRrRfhqBUZL2niyR5lyeDYxnIyIeAM5E79K7yiAOWK3cd19MFZRr8maPA8UTuktFt2mwu6vONru9731ViCY9ffSzHdNh93wYrObDEfcAvLez4EhurgAAAAC648FHRSnEw9UCoWN0Xd6123EmNJGWqoW77EyrLhx+Rv84dlwgqe1K0Z/FwNSQndyrqADxm3cbOkrmjuNTXEc386f74Rt7G/Fcgkn1fLNdPsVO4k/yY53J8fBQAhfK0zvXMbyB3tblpKrjMc5r/0KAnTEENmbfX1L7BiBQkFBzz8HXx0OPmWLzO5QZanv8mgz7OseF3SPFNSwpLdUxf17VO2ZiMEKQRJtrDn8Kv/44D+phI551YWtc7YQfFOAav5SsCEbtYN/VUh0h43F63sqp/0Z1LDkMQCs9AfsyZylThVjB8BwMSrSUVPFhtE3fOVk0+SytuXvCL41tpi/3s8G7radCKF0Dun24eEzOiP2dcyGRwGIm0igUYxdK4/deckkRBW/wloIWyfgGU8RxAvHvS1qUejsHf0x2PqKsEPXHqbPw74kDOevtaCoFEA/Xv5HY0EsNodoiag1kJTdxtOvTO30WXq0Tia4x4c78U5YJztPppHMz9IiBJ4AAAAEAcjnRbBNIM754HLDIrXvf8z8ZFI5HJGZhmo1TCTHQcD0JqIXVusovOy2wPFrOLML8KYxWtZbb+OY1H3J9dlmZUVPRVMI7NOQWU4fXOfJlbK7glz2lGDtIMvBDA3wjoMdLMjH11ZU90BD32zw4ZpG7upVg0w3rx4xuoP+GBe4AezdVhAo44/UbQLZkDfakRx4hX4RujWx1jwbnHG8kssiiyP1xqAQ2aIxPl4npsMp2ewqMlEzBms8tMdlqdZoS3jzZ8fDoQnDE7nfB4bNMlp/ec/FBDtlbA+jdYF6RX0NbEWfQKyIAPHNlt7HPl6vkVDSeCHmWVd+udZ8tvAD1yaHFY/zxtvV3whUWscM4wSJ+A6Dh4gFpoquAMIQLLMFfK0z1Ka3rH9MkCNTgW3ihUY0E9HWIZfeEHBT85pv2brqZfJC42DMmsdWYd8mNTTjTQAS6X5Ea9o75xMm+ivnAf/9x6SnJLmaP0xX+zgK/Y8jBEHmJDj9aOP5jAsSFsEHthd88f8TyWJaGbrwNyaZTZoHf8X+SShiCTZVhVNl6Ha3lvuSdnzAAAAAAAWNQJ9OaNOtWPznT3NuhE858GVSa4h013PvmMeB0cEwbIXj/1cV0MkJk7h4/JQqHvFBvi+UohGz/4grtXOAJlcjqfpijwMqG+T6ZV5x4WoxfoQZ/RX4MTFh7hB6CcmaZNemhi7zmlLRzWGSxqj9zlHwOyn/uMKu2auQiT0GiyOCLOfGBlbBBRi96GKs4xSyQsZe/jLogY0HcngkDl4i8/mqqLSYxGDphnKoN3WCauTPPAC9iXtVfqzH0GgzHiVZIyfzryJSaNMeO/cLl8tPfEAwOsM/9lz5upR+OSN+nexlUHCjH4a/x8JhWBuFMHZYHmkSZFnQj/YpqliydrIc2+KdmCNvJBYllKTnm80q1c6ojPW5IZvFZyK0nLw4GZjq6cfMpo4k/+l4b3SOTvxFHWCpP2Xa4yYVzKxmuzOnILSn3HShoHumgvL4/W/ly4FDg8wBGev846fxD4wPKOaexwoUZQqW9VKJ23f+UdQWgh3JGS6lMJKRhdoe8SgjnPYDp9U4ZF6q8KIgJCWAAAAAAZKSk+hJK8VNC3nme2PMWvEWirYJHGoYE4fGo+oTe1qtZx1gbBQs4JKVM+Rpi5PNgT9t1J7SLKZm69amhFOhPw/rNbHoRRLn68FsQyRyb5WmOyglY6rQ8FmTXzznwh516FmsEJvGT4I6fEJMCXWWEL5SxiBWRp3wEy/I+JNO3HCnUtqe/yaDPs6x4XceCmpYNKxxXad3aq6aHTrKSC6Ni2XBrt442FjkZt53LCYay8Pha5qxYmzFwH4tbSXvrrtnhCtjFa0jUES8nIU2+rk96BCK7HcWShdCCRuiSwhVewThrHPfTSMIfv/SAwUz/Xf1xJP9vW08R11MJEBo4Nv7CCcRfg4ETALj+JFnSefLOWIvVjRkWZMmf8o2v1+w6oAAAAAAjmcFnuryJ/e1ylaU9ULSpFkQnFJLF0YCqSR1DN5N39mcFInBS50hz4hwY1dVxAC/KKfibrKvP6RNgLfpc4o5+IY3ek7LexyzqrpXaOD0Zz1ge8rQNAy46ONHeIBFemht/rSC61/NK720Xp0DwK3+xm8gr9dmsAJHa0rUcJ2XYUrQp1JtcQJQ3WuqIob7Nmaf8APVvG8q8VAzI8rqLAPRFo9dvxhqLPR2QiAAgcrZnDmi8hJ7T7LywG7E7a08kHk9/rLM4kwQYoc8GOTP2Zk+/kvhAdYKNXFt++L3gwFu8InKIybOAAAAAOYwvbl89RLFPw1WF42qiD5K0NYPdbCxZcDNgvCm8YKokwdyzA6K9wr4r1LGXc2p+mMn5KeRjThbSRbNafq8tW3Xr8FxHDZdRQRt9g1GUQAAAAAAAAARVhJRroAAABFeGlmAABJSSoACAAAAAYAEgEDAAEAAAABAAAAGgEFAAEAAABWAAAAGwEFAAEAAABeAAAAKAEDAAEAAAACAAAAEwIDAAEAAAABAAAAaYcEAAEAAABmAAAAAAAAAEgAAAABAAAASAAAAAEAAAAGAACQBwAEAAAAMDIxMAGRBwAEAAAAAQIDAACgBwAEAAAAMDEwMAGgAwABAAAA//8AAAKgBAABAAAATAQAAAOgBAABAAAAhgEAAAAAAAA=;" vertex="1" parent="1">
          <mxGeometry x="146.71" y="-400" width="158.57" height="56.22" as="geometry" />
        </mxCell>
        <mxCell id="PmZetOY6otV7ztlLDBIt-2" value="" style="shape=image;verticalLabelPosition=bottom;labelBackgroundColor=default;verticalAlign=top;aspect=fixed;imageAspect=0;image=data:image/png,iVBORw0KGgoAAAANSUhEUgAAAmIAAAEYCAMAAADI2WruAAAACXBIWXMAAAsTAAALEwEAmpwYAAADAFBMVEVHcEwZGRk2SlwQEBAxYZIVFRUZGRkaGhoZGRkVFRUaGhoZGRkZGRkZGRkAAAAVFRUaGhpMXmz///8YGBgZGRkaGhoUFBQZGRkwYJEQEBATExMODg4ZGRkvYJEwYJAAAAAAAAAAAAAZGRkwYZIZGRkAAAAZGRkxYJEwYJIAAAAAAAAAAAAAAAASEhIwYJEwYJEwYJIVFRUvYJEwYJAvYJEwYI4ZGRkYGBgvYJEAAAAYGBgZGRkAAAAAAAAPDw8wYJEAAAAAAAAYGBgwYJIZGRkBAQE2ZI4ZGRkxYJIAAAAAAAAvYJEaGhoAAAAYGBhPT08AAAAAAAAxYJEvYJEzYI8wYJEAAAAAAAAwYZIZGRmtra2/v78vX5LX19c4ODgXFxf///8qXI80NDT4+Pj///92dnYEBAT///+UlJT///8wX5L////u7u7////f39/////x8fGtvMzKysrs7OxnZ2f///9tbW17e3uHh4e8vLyHh4dCQkJFRUVwcHD///////////9cXFxPT0+urq61tbVaWlrz8/Ph4eH///+Pj4+VlZX7+/sxYZL///8AAAAaGhoYGBgvYZIwYJIyYpIyYpMxX5I1ZJMvX5IxYZAvX5AANnQ0YpMxX5ABPHkAOncJQn0FP3oAOHYvYZA2ZZQiVooaT4YMRX4zY5M1Y5MyYZAvYJAdUocANXMtXpARSIElWIwXTYQUS4IPR38AOHUrXI72+PkqW40gU4koWo2vwdT7/PxFcJwAMXG2x9hPeKLb5Oy9zNyLpsI7aJcWFhbz9fhgharJ1uJZgKeovNHX4OpxkrSctMp1lbZmiq6juM7v8vUbGxvD0d5UfKTS3Od8mrmXsMiGor9rjbCSq8Xk6/Hq7/NJc59AbJrg5+7O2eS2traBnrxtbW2np6cKCgosLCwQEBDl5eXe3t5aWlrNzc0GBgZGRkbt7e0+Pj5lZWU2Y5QAImd8fHyPj4+YmJguLi7IyMiCgoKJiYlycnIAElsmJiagoKAqKioxMTEkJCQiIiLwf/bMAAAAjHRSTlMAHAZQaQrstNkUSufE0t8hywP9pX9tD3avKzUmhsu49s7pvTCMo2MmqL3wg2s7VNb2GcKAlROboXar+ZPWxy6hRbTzR+NhGqo8WHtc4Ptb/XSbZOoN4ZOMh6/+/iD+/UP17/5j4v0+zf7s/SgT2tDDe/eZ4z6S7OGc18+pzJ+7soDghVSK8a6tpMhRRbDFA7oAACAASURBVHja7J1rbBNXFsdZUD90P4QSaZEKlZJ8SFch4UM/IiUIPmQl0KaQL1QCgaINLEI81QKq+th237vaMV3PTN14hnlY8Qu/xvY4sZOQQNKQpCGQbsI7LAXRLltamu5CYV9Fa8+940f8wDcYyROdnxSClLm2lfPXOeeec+7NokUAAAAAAAAAAAAAAAAAAAAAAAAAAAAAAAAAAAAAAAAAAAAAAAAAAAAAAAAAAAAAAAAAAAAAAAAAAAAAAAAAAAAAAABF8dyK5vottXXVjdV162tb65e8Ar8SoET8YMNr1VXHclLTumQx/IKAJ7L8laVrV6xcviyH52pek0dcaVRsWQG/w4UvknUN9bVNjRU1q2oqGptq6xvWLS3Gu6ze2DRHQVXVrQ0r8U/XrTlWNNUbwAgLlpUbq/O6l9aGF/PLq5CAmpqXVBwjpOnnYIwFSEMRQmisX5utr+pjz4KNYJEFpq+aom1ftWZJ2sLX5iOfltsPvvrtrV0P/7Fr19Gjv3yhoqaiqiX7qVowy4JhWSupRlZtQd5sC+nCx9/c395lqjSZ4l/av5WJr5373zjw5tt1jXO3A2vANguD2vlFsrrVm3O4uKq7/3mw495XOx5/MfdHX9z6rNeUi0r8fefB37/5Ul3mos1gHuOzMctDVe04+mjr9q+HE4LoGt6+9dGtTZ/ffnK5oeKdtw70trWli6frb/dvfa/9dNNnpqLY8177y5l7h7VgImPzXEZsqml8549vtLXFo1dl5Vzjd217eC+f0Krq3n59d1tlmkfK4M4dEwGVf/h1cyOkZAsmy093Q+vf/d3OyifYf/vDz7MrDC8d2m0y9ZpKRPwj7G8/vD7tDZaCoQxLWuJT9/Kh/UVq4Ot/Pk5X2E+P7DFVEono6kjP4Pi5qb7Ozr6BqTMTZ0+f6p0rsrb2F9PiZQOYyqCkwlHt4SNkKvny73jl7e9Ill0bnxmKyqqNEyVnOBQMBgNhpyyqqhoYmuiZzHy2/cepz7cejGVIViULqofbc2ZRXV2F5HLnm/jS+3M1NDI2ePPC+PjNwYtjI5PZi3r839ois52dFouF17AkYI/HgpIqhqbG0lxZ5c6961JZIpjLgCQT/ea9ezJkcOPi5aG4yUXVZlNVOaQMTY0P9k/mUtm2dA32nj/jkXyiTZRlSZKF+H9sgrfvQs9w5prJGVuog6FomjbHoTUoiuItbtoe5uS+nrRnjyxOpmQtYDDDobd9Vu07lC6v8RMyJzqDUSXioU+coI/7lagjIImcKkWmLo3kdWm9l/wiJ3kjH7otmE6L+4TfHpJVNTrak/HsJ1Y1ylKZmBM6Y9wuf4ALT6SJcu8Pk45sOdjMmPXWpkW7U1HuctAnO/yuWQvPpKzPaNGM7fYGRJ/svzzXKyUY6RNEh99tYTSt6JgTay2zHruTk6+fT3/+rCR55oosobP4Ct6lCOroteSj7+9LxvNlYDUj0Zxs0SRrpdN9NtnucsdNj+SRMjyKZXG5uLodEifGJm5kCGx6yBf2o3VZqkHOyR0JcdLoJ2lrBnz2HBrTVMa4IpJ6JpmSHVyUDJZgNiOh7yQX66YcHuDiOkm4ISoPWixjLW6/Q7Y5Y/1JtYyeDFj5Aut05yRxfGqRaUwO00y+FWxElgeTIku1UMFuhkvEGpfpdrxik/wFdZLmldhOiyDpoaxfkv3sExcmnJObDvlip5MaG44JnrwaY1iF81/VH923GfaVRmODvkvbiY3YpypsEQLD8AG7bv0Jn5dliloUf3GWDXJ8KlwOqDE273uyHQH1SjLp1zVWB7YzVpj8yXvYoThkmqWKhvVKegnjOhchWIiEcy6psUucl8+v67gjG0hqTG/W14PxDAG2V3073kgGAjyBTJiYqoc7q0wzFBlsRAgno2W/HCygMcYjR/Xt6z599HElmM84TqxmHy5phQN80TEykY6peiYek2iKGIb1+pL7xavOUKH3ZsPOU/hJvQhbBeYzADixWf0LZLxuJ5HCWOcQtjordVDzIe7IlOEiNRYUcLm3chE+WrAODGgUJ1aNw+SA0EGiMMYuY3lMiTQ1P5iOgKQ3Cq4V1hjvFabRg7uX4ZkjMGDZsxqZ6lXUmOzx+YnSKVq9iEw+yBHnYek7huR2cTIQ4gtsQ1mHjPeg77+KPjgcGS971mc4sYCXbEsYtOKSvhqbv8LirxNLJmSTTgdb8B0l7Db/VAXDY0aKkz9CJbFzAk8kDb+K45YjyFJPA2PlpvTWu83OFlOFO1iLu6qAEcquLb9BE2FihDGTOB8Jl6ouizz1dDAem66xMa6bKVSylfvQc+9CG8kQoN5R3UGkFNlNpIuIgBpHp2xk0sytMVHX2E3OUyjqdpxEcxoHVoHEjBMnf4WGXOUYmRNzjiJNdAZY6qlJ82OjQqHdKe+Iak+1oSPjz4MRy5rnUQHzdc1mF21kTszKod1dv6+DokqhMW4Ca8xeILUzU8dtyHn+DCpjBgAda6tAp40YB0vkxEIWXNYPslRJNBbxnUWveEpUCoRKi4gaCo/gQhUD0KRZ6QUtTl4TrWSVBg5NSJ/2lUZhiVa3+hc8TcTReSuwNB9ACf932offAlY0QCr2Fpp0EIniJGN34PmKAG8ulca8Mp4865Py7lHNTFRBJzjheLhRJFZ1QLPYUIhIKi7hEuor2vxUqSRG8WFcyzWFo/l9Y7eEnoH7esqfxWjIAtVdwzEiqVhFNCZ2jrDSUXhQscM2juRznsu/h/CokymJwbndsmYFKryiw2YcSQvIzDo+QlqQFKZkTiyR8nM4HRsKs/mzwFMpicHoa1mj1fZbNmnZ/kXRQjIr4cbbujHORZUS1hvAQxdi3ranCyRmGNDw6L9QvdNJJDGPiBLzvtIl+1hjMu6IT4h53Bg9y6HW6G1I98se7bqblq2avWaDPE0SJ3FeLndTpZVYPFTig5kBe243Rnf60HzZB1C0KHvQdU/oSjmHQqAVs1u+8EzipFbSVfTiWG43Zp7FEvsUSq8Gqbwigwp+Eh24VGTlmVLHyYQf048DBPNMr7E2lIvd1a55ATOWM9Upif1VJZop1EtThJWOIou6Tly4UHNLjMFNSu3TLwEzljMVKYlN21iikkUnaiaWPk4mvJSA++HB3NmYVehNSQwuGC5r0F9w0GoWp7lOmjwVuyK6zaWXGBOTkYYGc28qI3JadR+G98tfYnfRwRCVQGKUG/er+0K8+Vm4MfkyEpEzZ11XCaRJDKxY/hL7AF3yJZJIzCOiGxHDCvUsJBZ3Y3hiW3LniNJeOq0NDlYsf4k9QHMWcvGVVzOlhNBxIfE49UxwiTdxrufJNcyDjgx8CQcpDSKx79HAPIHEaD54Hc27cu5SCstsRi6RYSx2pGFTJHtMkrZIKIz+F/pHBpHY/4i9GG2RxzN1aUZXIjIMg48JzXOWx+2mI4pityuRk+g2lUHBnf3uAjoffAsu5zGIxB5jW5JITET3lc+EEk2nhKJ4i/t4t2KP2mNW7fbO+eT4LiUsiKrT4Ygq3uC3Cp5Gy46Ubh/aa9xLfHr4a6gGqIt9issPBF1wlw/1oZVoYsPHuFklJKhiOKh0ewOyTXZYyUXGRpxqcODsjeT1xPhWRHuUobMm1dBDH0O2bxCJ/RkdPyLZUXpsaCZQ6o77rw+jMheeGTyti2P6gtXm9LNE4ZL1OIWB6Vz3q4+G50g/udeAmoUR0HqUH6OihY1AYt1hdHpcYNwRp88xMVccV6dUB099VPQGlYlyM8O5r/DPyhHjew1039QkbCgNgHZnym1UeiWp7tu96PoJMSYIozdyKWMk5GSK1hgflHvy/ZWIC1kS0zeU22BazAC0pvUouaLzJzPrjaBJnn+H/s/euf9GcV1xfG0MBoLl0mCeMZUwtWkbP7BNsRwJq7jakDhFKTaqf7CSnyJV/C2L1ndnZndnPfvweB+2d9dvbAcwprwCNQ4hEAjPKGmbVGobaKVKlfpDO/cxj92dnXtn7ZBg7VUEZrl3Ztj55Nxzz/2ec+/mPRUwHWbdV+di4cW8B5Hcz0FsaBqvNT6Az/5W8SX+sNvbOmIPB2XbYbE/XLA6eGucsQwBF40YCTuz+PT2xacP1EO9/hjOXoaMBJ6gv3mvWG7gJWjrEGJnbOrFPN6pT82YunXj9sK1J3op/XCUyY55Bpf0M5fEsVAInckVev6RKWLANV/coXyJWolR9RplXQN6vPH72XjduftsMjCtkBGYOqeWoF6aZql1wY+p1WIvjp8/fz41GIwkvQnOG8T3WM5CzDMwiXPBz6LSe8V3+ENvCLGvcHkdZu2+xxu8m3me4NWpVCQ2zo2Ox2LJubHUY/L5bIxhqvQPkkKvy+cDwUv3Fp7e/swbF11DJBP406ygBfAGsSb2C/jo7xZf4UuB2Jf4DTNnICmIfW4A7LO5QDiaGPaOjEVmHp3zjIXigTQ50ZQuc/TwsRnidKXC59Rzbi7EOC+pmPE4m3yeZI/8tVh336T1OOtqOrvKujpr+g7ZHFnXUNbW29rSVtbZt5qn5KEdpPdO28uj9HhDS3rcKh5IJtCBXHHi/N+4GnlOJtJJutbHS8SNN1Jzo9pFlycGVJKS0QzFGNAk3X8qumKZzdnQ2tgEJEGA35ckSJLQ2NHAxllNbzWQgSAJyvcr+ERRamouO7RKj/UrfUl5m1kjrSCmnid5fWp6PMGj09lmkxohi/Hzt0honqpY5AZxkbIL8fHH2rohPsuJQXyJ+Gz2avaZ7u0XD9pSW13HCABABMDwP6Po8wEg9NJkwQ3VkiTLstFv9vtln+g7UGM+wN/U1HRKZn2y13XEroRG7e6CX7kUmNOO1ZqdMMydz2+SmZIq9kkT8WF43h9RwZ0Z41Rj9TCY+VSKK3ZPF4sVE9xwO4GgMP1+BUnsrsk/cmurS3AJZnZAhkNPmCKm4AhE1mfbgxD7GudisCpYFcSwLzaUSuhhCS6oz55LgSipT0zFdnyClIvl+PEQkghdi8VHXNwcvsKd7OJlAik2gJQ8JUW6lHaoW39vflGSJJdLBEA3aJK0N9/QDmUE+V4FQTF6MlBMn08UCAnKnGkC2QiEWbDn73+B65SwLikVdx9rUi+MGdw3bjyixcQmo0R4TXXGuKRIinkOubiZSPjSo/FQjHMBNTTxYebWKeCiE0VXLMuREkQf1nMC4GvsaGk70QAd951NguT3I4AUao6ZjewSCGDKQIGr7lBGKkuFlp2Ngl+SEaI+l9jtXCFiP9GXlLlx9PyKRDwPXs1YhHIxstO4GBsbIse7nZukYMvHnpGscogSPxObmINKII83jEWPNzP3j0BCLWFcrPukemGSD8Egyns7sxcAvYrXjyCS/A25I5tVcZScM7Snq9ElYz6B/8TKEPuZrnu9HmBGjGxEZ0HJzYUeL128/igU8wyRdeJNmpaWj10yIAaPHOcyVhQZhhKlPmGMvypm6ZImygphoij2mgPYLQhYh5ztkJW60I6h4uh3d5oObXFhS+b371wRYu8a8sFZk3U93vhVU70/NzoRDAUn07xrYPIRnv+mKXmW3Nw8KRiLESMuBBgmAdnZJJ9xi3TwtK54LfLlcOyECTqy6MvboUwgX12WhfMBH+JnRJlD88TBWhQThl5480oQO4IQO6sJDNkQG8N7lJ/niLF5r9fLG1ymhyGOzd3PFnqMhLDqNT6fqfEgWjE0T/7c/J+0+fiOqh24bUPtNaXtV9obr1VtXmux2kPQm1KWflYzKUDmKtPMOfGHfn+b1dW3nkSLTQ9oXgFi2N//Nz5RMsYzzZSegYlzeXIvPbAZawJEZigXmyGR1HA6K5ZBxqezCufhzJBvLDJDKvrd/W63ux82N274R/Tr5Yr6tYTYXuxN1VmuBwB8JeKI8TM8twDrgXDJKaI0Rv+BFSCG/P0PbPn7YIBUtLDIIE+QYx/mopQynRwJQkTnMjqSsNitUKbEKB3C5H0Ln3q7+b+ovMJt3V6pXDuIoe9MbqZwAn0xIHfonzQhJ0toot+gDcZAXH6prXDEfqpn637IeHoI4IgkcSGvUlaLztKWlFrHC1PDxo5En7+YMX9q1VpOWx3aXL7RYLnUH/FvbvLJmlkn9ECHyi/3Ubohl993SvvzAeTxgm6WW7RJItqQchaM2Fu6v39rkDG+rxa+X5jOjxhZUt6nWEZldbpMKqR4M+6AIb6dyrjDMIn5fg2f+XeWiFXVVqFmcMp+Wb5BZa52jSDWBVkRAa1bq6gw5te6HUO2jz6MDPZBxoRTBSO23qBKnGSM73PJWZoVG8i7InCZJ3vcCGTEP2J4w/JjY+QVKPPkGT20v8kSsTx/ua7djbyyNaKWbUGsnKTGzmBwFohl5I8y8j4E1ppGzSKKe/QWipgxvk8NlGpVpWcoKSWau7ZACbYB1yypVxczem1auMwo/wADE7w+T/7GUQhiDscbyPP/5Dt43+vRfy+0dcCggthM7eeHDpVIfPY27IiV2Qi9wW9fKhgxVCnxWxznYswI58mujwVi6vE1d6j6jQSpI7UcHjYixpnsHyWIBNtynqQh5tgGEXNvXvXXfQS6ei8YsWo4h4mt1H4n0T4SQREFyoRu9rvUoBcjdRSK2Nt6AahrjHoePumnJsaRVMvsJaFJNbzwVRJ8TRin4nSOt6cYPKLK+A985IOFIub4NXT6j676666E5vFFI+YzWCerfoYJ9QSKdQlOuyRLUqGI7TKUFI4wpYgoCzsvFTES2DobEWnLU/W4LmO5OjXob3T3wYAqerSIu7IgtgstMFf9dZd8J1elha0gOo10RoCsLDyxf49UP6Dazm224o32sgIRcxhSREaYgq8scTHXKJEU0qlVzwJZDidyNT5G05YgZ9cgqdjrhSPmQNGLdatvxV48Yi3Ix6KHt3rqnE5nH4qz9vmRdKfO1n2aIcrgVKGIocIW/7QRfFUQI864RZECbvAB264UGCa6jcVp0ST0Opqr4/mb9f4kHbFyCMObq46Y+8Uj1iUiz92O1r4VeWKcvfvUQI8f+LYWiNgv9ODrxRRL8NWjbnIvWcj9Eylsm8aoiHFqubq0IWFJjJzJ3oAaJkXNTlOy2+iI1ULEKtYCYk4UT3C12hiCtYYtNm+EPeqyAhEzOGNngywH63q8RLRlUfYODKfwDtLYOL2UVGABy7GnEwYjSAjVt8FFYhf/SzkRnI5YPeywYS0g5vALtkJcilslI9G03eSPA+ilNhaIGHbG/o6LBCQZTv7T9IIWoXswTDysKbp8gycHMZ+Oa+njniHid80n1fJi/CQRWfyPouOhI4a8plWnYc/3gVgH2huyMe91igBuOdq9zzHo9AG5UMSQM/Z7rGMND7MgRlJ1c2p/mTjxcQaFUDqIZ8WbwYR2i8GPSR1G9RZ8Ctu6M/Bpf7tixFY/+Pq9IOZ0IcR8p/pYmUTeW6PtGyHBhdhTIGLIGfuHKiFkmCiHiKTGajeAm37AjFiC5AKcDc5k73Fq9Qa02MaXtGopjBPlOzlTSOX7u6n7Spv21NfvMe+1yeK2B3fXV7JE/ktLKvccNNs2sI54KW/c1cE2WZ6EiMktthFD1lLsLBCxDGeM4aBvj5fMYh6LaVUklokl1MZFSSWUj8J8lrunlaBNhO4x5k8yuPuwwxbjm62twIoyaN3KzcMZ23dAIRpu7ssbyncb6dpeWorBVUgtLV1vxOn4Pje5tLtdHbR9l4ISwWd7aQnqvX4/3qTPMK/vv3oUjVXu+U6VOWk+HwlMC90tDB6WALvLx+wHedE+ZVuBiBmdsXSMYZtS1XhNWrjyJOpwJcSygEgElrSj7MmilcRFFtS4yEzkx4yifTpi++D73q/HTI0CM4RQeY5FqG0n0qB+veM2PdBmHA5/+5Fqf8rdmdd2I43HYfgj7rGhH/cuRyTBTu2a8dpHZJWaxtJMIOL0+bB0WhKUn6rbKAEvmEsiyHW2EduJbtJRKGJom/JfbPkcrBaKHCLzIMRSAIpPRkkxizivRjJIIcYUfh4+TupN/YUq2qcj9gl8bbvUP21RATAIy/rLM0dsVM2Xm/yC5WeqtrE9S/TY/yr+/E31qvpQNEFv01e0iml0H8akkXZZfS51TL/hyiZbq04gSFp6LQxINB1o6KFYMfvVBFpRxLaxUMRQTvif8TZlimGbklT4eph//xFwyVFSxoDpHC7Vl3+imjHXfFxN4cVUExXtN5Y74GyIbTZuIK0n727D/uP1lUc21x5uxyS0G0ccRaQc3a/6aiVVG/HctyvLimGY+vvxLPwK+bBi27rdlbvX7diC+h11OP7P2tU2RZFd4REW5FWg5EUQrK2BxayJIOCCgSybIFE3IqmyNCuJKaryYSuV3zLj9Mz0pHuYGcDhzQiriBhc3E00uJrdqLvGxEpcq/Ih+ZAyScVUUltlJVWbvufe7r7dfW/37R6vX5Dp6UH68dxzn/Oc57RaIdYPMQwQNRKL4Y2yHANscKiFbNNYaBlrZT1+RVHUlPG7V5DRQPcZZl9RXYrRKiKyDiWM2nkQiJVQZcoZz0HMRoS5w/fuNPRivxcTb8hXEtYwphsR3MY1TvnKnBCzLwQxgBCJM80YF0P06634aZtp9xA83BZralZNAXX3tp5tJe+ii4qKGhvLy5vL9c+RpJHJkNniMzyqXVMWaqAgpn1ZD5dWk+0f9OL74e6V9Gc2VgF6B5iFJCWdTVOOA0pEUdJqvK3PXux+A2TSef8QOw5R7EBQiIVOoAf3Q9wT7jmbLZ4hc8H5ikR0IrwlpHo1GuWnblrDmG6bggtQeTLNAZL9NwuDWC3NikF4qrVfMgEP0/grumjQcZ+jCAVUGaoO3Yp6vRLQa0+firVvNhRbICZ19mugtnatMCNWBWC/lc1enFGzqppN0b9U1A2e6LV02u4FiKX8Q+yYCm27gSH2mtkjcmvai7aI6/UjN6v+JYIJURcD+UraeqjUHXugACWvEhOyf6EftLkQiBVVSlSyj4JKjBEXGhBc9BLTOIIK4zg3aP0cm9JiAGLYNkYRQJJKTYhpgJe2O1i6LbQNTzreCx8hcWVMh7/yk3Q+rSiW/CWeTnebe2Z7lpbl+Fh7oaMyOMTeNf33f3k+4Qkxsgk+dtkE9ZZa4cHOehi7nbsO2Zd89ZFZQZKJn52HjIeCmMShR/EJT49baMOKhVkX9lO5NUrax3j02n4exOCDWL1OwyT5IxDDCZy1kN2BENbEKVK5k8btfW1ID6bFLyOgqdmsoak+C7SY/yhW164ajXKBIBaikrFlr7a0uD6sjz82yWgVejL9M9H5IaskjH2SkzHEPjYgJi9v4Nd+LGIzgCE2MLDTugbC1SN6Uj5mBgvjAGdbIyZ9gPiwIU5SJ3VwIDYAPSrMW3dIMUsU0+DU6swWK5nvHUc7uKdid++ZNiWbpYKZkk5jw4FTIKoOkO4fNnuWgkFshyngv+9VQxLZKC8QotTHYGd15X26UklDTKfNxEyqSZObfektb1RyX8GhAfQQJeG545W8BAiRH9UciKGP23I7b5hRzLGttyIccfrWtQxPGhV6pl1vnUa5mBHJMKOPH4f/adddQHacDg4xsLb4m5hboiEXcxG9ysQb/6n4YGd5mdgs3gJvDWqjTG4QtQ/Qrt8OCDEDatXD9OOSeLdBl243iLNa5m5aFa4dYkOsGf2F10rXijBGRTH7Xo0+upRfX5WkRtHnevaghrI4rjBF+gyI5Y/4hlgf6F57g0OMpi0WPdKneHIe71uPria5jZakoDi7Lj5tS54iJsULyzKl5vl5Ur6KS6LRZ0JeKTrEJNuCb5V29FgfZRPvNkMG/lBeJnmr/iwQa5Vc0Ftij2ItTog1cCkXtx+asd7oy+KmtgjslXnjK5/svmII04JBjKYtPr/kFXlIXxrfA1Gfu3xT2D+WrlQ+mFLNCsLMemaZ4PUHYt6bGGLFkxX2tb+m0X62i0lco8X9BgexO8Y5UrpArAzRqCEXmFgg5uA1Ylx4AuDDPuEBpgGpPDJXOYDS9nyXb4B0w4nyZAEQe8e0snvgqbbIn8fu5cvOWZGkpZbg46PFjI+RgfL0PeLXvyobyuqcIk9hS4KoJGb45F1AIqvJLdLgjKkiZHKo/T0+ILZlVpFY1JwrxAbc9m+cQPp8uq+kQcKDvBLbACq7fAMEbKBSxwqA2Dar2sJDaUF85O6yrfrjmbUbukewn6mUyevEjufmippZvk76MOcW5qkg9r2XCLF+ybXXTTKMCcrJLiuV9o831wlBjFfrMWgQHWIo0bOl7+hbE3z6IIgsbQ8wGPE9odAhgNgB3wBBlonkJBoQYiHKZ0x2jnxnW9h9yCloyis3yYQaH/sket8svm907tIcGbP0YHpO58RE3V3deDHrhVDMCbnk+4SbqmuhTaS2tmo7ims8ICZxKQvCe9Hpvu0sMYYKmdWV7DUG/4F8nwiJuXAotBfTsb45C6i0pwqC2Gum2sKL4E/odtLRtctJprkmeVlZ8DfAObk+/YRUP/XpEfcXiblB9PveBXCfEEO1myr+y4hFGzK5ehzJqHp3uMINYtomzCfw6s0TZZV2YZhRNeAeiOFnwBlkHRJMFAmpJnbhjL+dtIdk/SZje1DwU3sLghjYJX5J0ngvGeFF0qnx0ewS00LgN6Rr7WLE35JnSDPujTUCtvQyMSYWH9wmDLExg5bgMVB0bamxKbxlyH0I2iYCRrF+K8RsSdtnNJbZq4IoLFJoCdV/QE2ATIW7wWenzSc8wJVYPV4QxGiCf27VfaeM6K2Pn06vO0sByctrNg2r+HqPEK6PnmOuf3N2hqR1/3XxRWRBTKC1ED3dWv7LWjCR7OlU+WRrtSkAi8W2Klwgxs/FJqwQsxVJRwHb5S6LVGmhizIuVnAErh/Zbh6ntjzxfZLWAAWGGHhX/5vQ9hcETQLuzmacQYz0O17LrftFmDk5kDSgvL+Se+J3+qRwFNspOTJtMXaqvGKo+jMSZ1r4EBvg3rosRkMsO7A2VgAAE49JREFUttN53hRqJD4GoUkR+q2koXKEeC3cFnfGFzhOp8wet+AQg1K4JKjgl8mZcnN2XnYwFmSPM/uJfCx1BTtV/xpXB248/4SqTn4t9FKjWIe7QwAC0LjL2ztBDiFxeTEX+EquEJtwP4ZQux/uDBFKxlJpnazYg5h+xZfY4hS8W+kqEGL0TukpGpMXLpNRNB8kkvYiOdnaLs0nIwHC2FN60uUHxGzYzwhdDDGBM1eFq1sTUPDuuqEtBLEGHrvPh2+5O8Q6BaNwqA6GL8SPi1wL8x8uoih2BCf8fjrIu5F4Q9GPocEh9nXzTPnA0/VVPU+ohM9zsjXi6b3dD6YCBLFIJH2VGhR+6wWpf/9VqDpJ82Iix3rEfHH9q8e9XVB6LMVEa40SvdTCq01ZIWZP9xtdqVcLFZGn9i+PKIYeUh40Pd2IwcimTwkjoz2SRVNuThYMsd2maGwz5yWvlpf1wW0bixnq2riR7CurchCIGa3haE2RD/m7m31wARCTXI6U6NkDDJpa64c4mfsoTYPalBYuighaaRHWrrMnXig48rboxtiWmeW15c0ebZFcDBeOTkF7b16cfoXsLW2AKjjE8E55m5AGXpUfmczujm6urmXofZLYA/9x6mIk0Lo4pc8Wj/7hBZnp/D/0k7W8dIgddasgGWKwGF9U1k9vaQ69mCTVcIlXGmKO3H7CRXeImpdiulYELDXjaQGS67DBiyGSDPah9FuinBhO+dpfAsSgTvmF07KQQ5PqM72vrc4mZOog8DHplrsQDGLygj479dpzwpL9SUCxHwRiRdZ+Sjt1pQst+DtmBz+KhWK8Qo9V9cqCWBGiRSbZH6mdZE34HUlhib73PxVMYQ1c5PPaG9PKIaHfZx9yrFapsmYBEGtET/KZYe7rqe9a3CRYeDp1XYZRTto+uUEAsjqfjAfEWI6Uke48p3P9On8QEzL2hR5dpn1AjbmJFtNxw7rCdICzQQzVIVmHyt0S5m91iEnOjRL/XMxPbEKMnEmlwIiGlOqNFTygQfcdbieCWBFH4eOo3TxPVzULgFhon+mX+DtvxiGzmDAGhOdm3ruQjCQScd0E7OHKUiTgSq7r+ldCiX0hWP/2D7EeidlbBKmU9qfEjEdl3KTKKEGBpwUlFxpk9od0au8ZpQpIrCiGmzvLmGdRybKHYgd9VfXSf/WB6bRi7Kh9WKUoYDPWh84GcUvnZSEQA+3rd0mXhlcRKR5J5AyC4fYvrs7OL/00k9EH09z1JeOxhbGNmWsUcbHJJiya3/7qd75ZIMQgKDAwBoSFIVqt5pGwQKy1WNiucfomgLEqOiEbLgXP4WKPKKZFTonVklIE1dFmR3k77zE/5BToCVOKvWapKF5+6r0RoCuUIy8JYjQ1duOS54EwSWEs+uT+2kru0vzqqlEgjwfGWGZxiYLYf+yWdbvffucb58j6Fo8XE3TAL5MYA2saJIvauQQe7BCjmG1VA9ldiksGiQ9KuKmipadmf+d2XHwcprvBw2zlzk5oBbedcCZtVhoh3a9cw5hbyl+ErVUUuj+8DebNK+mUWwA8BmxaRDlgyWwBYpGAEHvddBr70JvWUuTk899SWLjz+Mb1aZyhPzz/zwtLyYAIi0dU/biqC/bPndi349XX33x1x75z9lUYxEK4qXvElNn31G/Bk5ywnuK0cGeVMxePwDsbLTSHhqD+8eGaehLMqmiBN6lgj4YsnhYciJEO9DKKtpscg7vZjicHwZUporiwY4ewB1nKOmRkVwq9U1HSvbzqwNlu/UFbjXwQxFJBIQZyiz8b+boXEpIziSh7/epFbnpmXg4IsuTS8ovHUTrXd1mvOiEm+YAYZi60NVhWtTNcPaqrD+udNANqLRlqahhv6NheW0mwM2zP7HCg0tm28rBp5wMynJGKkANiElN/2InteGJlR1s7x5sGyrbwfRrYlAIy5ullBqSuA3h6rmIfeXQQDwZXVbWb5QV1+LR26CQQU7ocUSzedfIVz3WI4atxwkz4H0/LHgjLLM5zEBZ9+OnmnXsL55eTQWKYPD+9ce8RudNfmLj68h8/eqZ/bdc7V5Ui0PQI/78qpgxP9C+rbS1mw4P/Z+/an5u4rjDBBeoBHBNIcENsAlOHhwmvElIeJkBgCI8MkBTagUJnMm2a/Nbpb/mlf0BHD1aPtZ6rh62HLcmWJQMCjMEG88ZQniGYQEl4BkiAUgiBptq9d3VX0kp7l3oa2ZxvGPBI1orZ+83Zc79z7ncyfFGQ5c6QrFQed5VJKuBFY/eILUArXismYVHiaSHftFZcKj3mgn6W80B+R4P3hxaLt2x52tmicR+UOxyoD8dbn/0YdHjRbsHqqKlYLhX73/pguoXxkkSnhpmRRbFk/PM25IXXKjedaRJJ+PlRC/kzpsaoNj+2NbsMRtUMMza7T5NrXF2ZTq4rKz+5hmWzH9ErVRkB6+3S2QMHH5+mIni/MZvYLPHLWSpzhvEPY/Up5ycc95ZkHS0ZMPw44kNW237xsIx9gpjMz1y4YuGcXPWWocSxLPl/2zNc3p5xssOCww3D1JjN3vqpU6aXr5mq8VqsVtHdzSs7j6YCj5jnW4Ks1po15RVl5R96GwzJVMWCV0ODYl1NeWYuRoWy/Am/gm5hivr3Yho8OX4sB8l2cKo1fntzNONqmx/c//ejP929t+7GrfQ3PhL+t9U9MSa3aMnQFclVHDx00Iic5JxWlHxC/nzg7IWLho79ZVHOs4zTXn1B6duG5++3lbJsTmkyBdujH1g6Is9Vy6R2KQzDODQGpsbKWMgrOUrl4z60mEmwSoZBhjFjUiHnRfOv16DLSOZH1FPv4yzjc9XC7+JDkPnCmCnkFOvVfI36yj15jrW5DSrzsFBss5YOLwmlS93c+f16G0r1ckrF/4D+463mnM8Fxpunq2Lc9GQyJleQrjE7HGb+g+UoaJlTe08Hb8vI6wXJDYM1+Zi1COc0zSjm1Vh5PyANvqLcHkRyEkl7yJ07GzM1iQ3PyN83ieOPLt7SZoWzumZ11fAGz04tNZBuMa8gaZR8MhbnqX/qR/bw971XofF6LQ5HMkcXNpCMxspLDlZNmZIuu3xKTY3ZkqSLVyBKkjR8GmaxVuBkfQaawesQWy2mVIgoqyiTYryId5J/eJTJlg/G8Kv2ELetbsl53Dth68LL/DAtVbqdyYJdnKreV0m/2LbuTiWKCYeSVhUkw+bkafoSlN1pPf+d/d/9XflUK2/EU5NMshivt/xX79JZbv7+Z9OnGs1WPix5GQvjmDJjssQOdrLXSifUUiYlkjB2NFcYM0ZsZ9JkKxGbxB4JziXy44RfTRgLeLBX3Vm3zc81HpZl1r5z0ihWmMPkBW//eblK7JtyWqr0ENmGPdvnfvOWbPvAOK9AMppx9dQK/30cxhLyYcwQP4oX+UH6fg+/eqm1ronDu4FdKjJ+RnQh1ra1JoJsYKvHv//AFxJy7T154FLgO7Gj7AcVvbD/d2ySyGMZ0Kv3DPipMTWZX3nX9NDFFks3lXLaGF+cPC9KCmkEe/8qevVAa4vdFHQ14GxM3pZA3iIW+0odbG0waQwao6kpxnlcdaaO8zu6O1p8fo6zfdfalZaKrS3QRRmiz9W2LbjW9e9dFOs33WGZ2mMXExbuMlrE5pAMx+yulrQKdYph69GrJz11fLN1oHU3Pm3LUlOMdZ3Cggkrfhlr3FLnizZHo9FQU8QQte1PhbTHhRzEhNZq2W6J1/TZp3N7Acabe+5aqyRhbFvYkLWhNUUb5Ys7GzDvYkJLdZIuiA3bOBUUc3alj75h+H+MJrvdzrK1AV/YsC/FMKTJVhayMiHnSzZk008xK6nAoCPdr9odLntWq43zAl7k41LVfZ249BG/HdElGkQdtHlm72YbsqDIFwnZDUkwDP938tNGe9DU5A4nJILGbV1BBzGcjen1aYY+rwzXA8PEKhIOY5szD0oaEzZxnTcSqeIyWfoTznoU+Fj/DmwyRk+xWty43xyqZVnWLgQvlg1E6mJcvPnsBUnifwV989ICvo/9xQrj4EFzRrw8cs6SFbjmuGjY804xFMZWio/KFmO6XIG9DLV30CJfv5gmKByJN6COamOkdZuSPX82xbCXelurzelvbPZFG2MuzuNx+06cPifV9S9iblcX9o2cKY6ywVOMEMVG9AMgbewBFsekLulGg0fs5Lqf/JUnP7yUIVkdjYuMtHBYGVNBMU0wjDsstu+81HliR21HW+eh9p0XMr7k05U5m8UKDSMH69NsQfUrioBfPEqkIleH25KKYwZuBxHEnmYVE895OcQwRmNyRUSVXgXFvNwxxarRp5+NERlW3Btu5qg3Zg4aMnTRitJBb7/8AnALA1Uqr+M1bXEbjEnSMBqjxd1BBLFPMtf+QqezETfvGOtdqV6ybfTpvqbFrVj7/izVVK2bByvVeyE0XOjETWKHpyVo1BiDEU+AyBWPMgJYe8DjasFbA1ODc0vqnQPUFCPifk5cHq0DhvWhjF8nPgnPhl1NDQl/q1g24p19peHr8P6Qh/NZTWJfdF24jbzb5aGmmN1nyMev9WnticWwSr0aH6fVHLW72vxxV/eXEk3qKU7Ldx0+H4t7YnWmYJJgvIRlCiScri7ts1DMII6+ycb2i3eupOm8c2GNejsWpHVO8ItMfryeGjWiPfP99+GtbEdHLWsymewsG4z4OMnxIcEfiqOmGIsNMW7c/Pqf99dfvXr12oYN6+/d2Xglq3l/EqxQX3lUfi0TUe6kBbjDHf5w3N3o84VC0ZjT5om0Z/z6aRUUc7ZLakO5MQuWp+/sKkWPiyyG6daTVw52nWr71ppIdHde2ikVMu7h3jGWmmJxVDn4MS/BqmBx+ggW4xW9kc6wTRm9YbmxB/3K507qMnggfFDp7OSsUbAyfQdrZZql75PFvpmfYA90usfI6tBNTTFReZVn1+hKUMb7GirFxX2K6pC37qav+eU8DOPnxKNd5xl6ionKq5DQF62uLhkzWqebWFK9YO0kEMH68rYyAxMnkQ6ei/L8OiZ4s+o+Ql3WtBRjNE1o8OQN/sPwQHw+UCVDsQFY+8eNFjeyCHZfj9/biDpYaSlmEJVXoY/iFbj7zwfmZxJsbjbzvvrm7rprx7ZrtZtvrHv4jeQNlVHMwDaeJ8c+4N4/pw/LVZlpWj78S10ullJerwPFni+8OEFWkSqqzkOuSiHOPVani6WU19sqLNABfeRx+dvKCbMmZY3SKFpdIkuw6lH9lgoWBOrUfUMt7tl+DDVIgJR+Va+n8atEKB+uInMi6GuUJtvJlGaxAO4sQIoBry5etmxZ1ar5YoeNIGxcQf1i1J0W4sh5qBIBlDGJ6P/0Xa9b/MIHrhX60SJAwVBMp+p4CGPc2kTmzL8J9xCQF4vVUyxlaHEPeloBylhKKEZ7VBdkMYAaSGzKdodpKcZ9Tixc4RYCFKQMQrF/eOik15TbAG93PhFuISA/3iQU2+cJ0lkcGz27UppFNdxCQH78glDsZJzSiTMi6RZbDbcQkB8vEood9FBSLIHO6W5QMQcc8PyimFDsHEc1QYQxhSKkWwxkMYASCMX2OhvoZLEYOqd7FxoSAdQUQ57VbiudZuE+ler6B80CQEcx5GDtaqHULJDlnR4oBqCmGDIYjiUoD1GSVp4xcAMBVBRDRou+Oqp83yrRLCbADQQoYTQxKGvZamToT7hdg24xABVKyLiu7qhduYLE2H21ZKjSfLiBACUIh0fuIJv0GEWR0hDwd5LZg9DKA1CEcAoOmZAdcdFQTDx+tBE2lAAqLOOZ8kTFKbegpM8CKAZQhtCT+JUKV/QGjpwNeR3uH0ARH5MK0pe2AEXjfl2IjB+shPsHUIRkyPh2p3IFiQnEThA/C3ByBVBAUkFqTGgUhbEgd5pUKMFMDEBLMaS9Gn12Rkl4jUhSMcj2ATSYyHMFjRg54lZqrWbs0VoypxcqlAAaVBNvnn1hxXw/YEPPyYeQ7QNosVpiax1TKoSb6mKSSabgGgygwVKJo/ohp0IYM8WRtL8ZUjEANYols3m3OxN5my1MvmbJ2IgSuHkA+i0lflKedQbzMSzRupv0ioEqBqAEmn2LB6O6t+Y+6WZqaW0n87vgOQmgBbJOn/tHNDEwbDDmTPVbT2mJYgEztAC0QJ4DE/+K6NPGWeQJFnE7D2DD/v/o4HwbQH0yNvPP4oRxS1ocY4TxqJFYfL846fIuBDGAOiCb4ff/jhn0rS0RMGoMCIzGaGcdIc7ZfVAcOrJOB5kYQB2QdYpuwV8wh07F3U0BlmXtdpatrW+KeWxb28ms3ovot8HMAqACyJX/ZtXfMIv2HnWFOVdjc6PLGQ83t3V9IR2PihgGp9sAzxDG/tveHbMkEMdxHEbBoeUCB4cWXVzuHQQJt4iTmEvuQvQCeh+9m5YCsaHRVXASgyDaAomgRQRTTvPk7pzkeV7Cj+9w8If7rD/Hls+VL6+D58FoPJzstgX9uY7UVtHUz9Zdch51HVJ1MlIKVxsL7pP7uxZGRqW/8bRvy3sG9r1J27gX6VU2caTf3Xk9vs0f/s3EQZaNxQu8T9NOLAddcCsyqsYKvP2P2ddPp/++1ReUPCKH7qH6bmhg5HMWJA3sxrs3+Z3vqTyH3QvH4Uiata15VeuRq3Bcxah3WQuCq0b9Oio5BwAAAAAAAAAAAAAAAAAAAAAAAAAAAACcvgXB8fE1DepJnwAAAABJRU5ErkJggg==;" vertex="1" parent="1">
          <mxGeometry x="150.54" y="-199.27" width="150.91" height="69.27" as="geometry" />
        </mxCell>
      </root>
    </mxGraphModel>
  </diagram>
</mxfile>
